<?xml version="1.0" encoding="utf-8"?>
<!-- Generator: Adobe Illustrator 16.0.3, SVG Export Plug-In . SVG Version: 6.00 Build 0)  -->
<!DOCTYPE svg PUBLIC "-//W3C//DTD SVG 1.1//EN" "http://www.w3.org/Graphics/SVG/1.1/DTD/svg11.dtd">
<svg version="1.1" id="Capa_1" xmlns="http://www.w3.org/2000/svg" xmlns:xlink="http://www.w3.org/1999/xlink" x="0px" y="0px"
	 width="56.69px" height="56.69px" viewBox="0 0 56.69 56.69" enable-background="new 0 0 56.69 56.69" xml:space="preserve">
<circle fill-rule="evenodd" clip-rule="evenodd" cx="28.345" cy="28.346" r="28"/>
<g>
	<path fill-rule="evenodd" clip-rule="evenodd" fill="#29F1C3" d="M52.898,37.13c-0.033,0-0.063,0-0.096,0
		c-0.171-0.061-0.187-0.055-0.272,0.081c-0.075,0.006-0.15,0.011-0.226,0.016c-0.037,0.002-0.088-0.016-0.11,0.002
		c-0.179,0.149-0.386,0.074-0.581,0.076c-0.088-0.043-0.153-0.04-0.175,0.073c-0.186,0.054-0.375,0.009-0.563,0.023
		c-0.051,0.003-0.113-0.027-0.152,0.016c-0.104,0.108-0.223,0.065-0.339,0.053c-0.123-0.09-0.246-0.087-0.367-0.001
		c-0.046,0.02-0.091,0.02-0.137,0.001c-0.026-0.05-0.058-0.052-0.092-0.011c-0.082-0.006-0.09,0.123-0.181,0.095
		c-0.035-0.032-0.078-0.049-0.123-0.05c-0.502-0.006-1.001-0.015-1.502-0.017c-0.141-0.001-0.183-0.047-0.127-0.177
		c0.045-0.104,0.125-0.189,0.157-0.302c0.028-0.101,0.08-0.183,0.197-0.194c0.084-0.009,0.115-0.065,0.115-0.146
		c-0.005-0.338,0.181-0.602,0.348-0.872c0.031-0.053,0.067-0.112,0.134-0.112c0.208,0.003,0.251-0.126,0.258-0.298
		c0.003-0.083,0.036-0.16,0.009-0.246c-0.026-0.081,0.002-0.147,0.075-0.196c0.056-0.039,0.104-0.091,0.163-0.123
		c0.105-0.055,0.168-0.125,0.159-0.25c-0.006-0.083,0.033-0.145,0.107-0.186c0.063-0.033,0.108-0.078,0.117-0.156
		c0.012-0.128,0.03-0.255,0.048-0.383c0.121-0.012,0.249,0.032,0.365-0.043c0.029,0.006,0.06,0.014,0.091,0.02
		c0.091,0.174,0.227,0.123,0.364,0.076c0.032,0,0.063,0.002,0.095,0.004c0.069,0.128,0.199,0.114,0.315,0.126
		c0.246,0.022,0.498,0.028,0.74,0.077c0.359,0.07,0.718,0.068,1.079,0.047c0.033-0.016,0.065-0.012,0.098,0.002
		c0.035,0.032,0.073,0.055,0.121,0.053c0.282-0.018,0.556,0.063,0.836,0.052c0.258-0.011,0.516-0.012,0.771,0
		c0.29,0.015,0.571-0.051,0.859-0.051c0.049,0,0.088-0.021,0.113-0.063c0.097-0.021,0.193-0.029,0.288,0.011
		c0.204,0.005,0.406,0.015,0.608,0.006c0.132-0.003,0.269-0.021,0.386-0.098c0.038,0,0.074,0.002,0.11,0.003
		c0.138,0.002,0.276,0.02,0.407,0.002c0.239-0.029,0.474-0.099,0.716-0.092c0.057,0.002,0.099-0.031,0.131-0.078
		c0.04-0.005,0.078-0.01,0.117-0.015c0.461,0.047,0.9-0.093,1.344-0.165c0.334-0.057,0.665-0.141,0.993-0.222
		c0.302-0.077,0.595-0.163,0.881-0.281c0.187-0.006,0.356-0.082,0.527-0.135c0.124-0.039,0.267-0.019,0.377-0.118
		c0.034-0.03,0.127-0.019,0.139,0.065c0.01,0.071-0.05,0.068-0.096,0.095c-0.128,0.071-0.263,0.147-0.358,0.256
		c-0.13,0.145-0.308,0.209-0.456,0.322c-0.142,0.107-0.281,0.25-0.483,0.26c-0.123,0.219-0.418,0.189-0.558,0.387
		c-0.012,0.018-0.035,0.027-0.056,0.035c-0.334,0.121-0.612,0.342-0.928,0.502c-0.209,0.105-0.41,0.242-0.629,0.302
		c-0.257,0.071-0.452,0.256-0.703,0.313c-0.207,0.051-0.393,0.149-0.582,0.231c-0.242,0.104-0.495,0.177-0.74,0.267
		c-0.149,0.053-0.293,0.12-0.452,0.134c-0.088,0.007-0.139,0.076-0.214,0.105c-0.136,0.052-0.292,0.036-0.414,0.135
		c-0.05,0.04-0.145,0.023-0.219,0.031c-0.037,0.007-0.068,0.021-0.093,0.051c-0.163,0.046-0.327,0.091-0.49,0.139
		c-0.08-0.003-0.163-0.02-0.237,0.032c-0.027,0.003-0.055,0.006-0.081,0.01l-0.012,0.01c-0.01,0.019-0.023,0.056-0.032,0.054
		c-0.189-0.018-0.355,0.085-0.532,0.126c-0.156,0.035-0.339,0.019-0.478,0.136c-0.037,0.03-0.088,0.031-0.13,0.021
		c-0.127-0.035-0.233,0-0.334,0.07c-0.031-0.035-0.063-0.037-0.097-0.001c-0.035,0.017-0.071,0.019-0.108,0.003
		C53.023,37.041,52.947,37.052,52.898,37.13z M50.365,34.464c0-0.025,0.011-0.074-0.045-0.096c-0.048-0.02-0.095-0.009-0.125,0.027
		c-0.093,0.11-0.199,0.156-0.343,0.105c-0.063-0.02-0.153-0.033-0.179,0.047c-0.03,0.094-0.141,0.176-0.058,0.293
		c0.076,0.106,0.13,0.217,0.136,0.355c0.004,0.103,0.094,0.133,0.18,0.069c0.086-0.062,0.124-0.151,0.129-0.255
		c0.006-0.139,0.049-0.254,0.181-0.318C50.33,34.651,50.339,34.563,50.365,34.464z"/>
	<path fill-rule="evenodd" clip-rule="evenodd" fill="#A73BDF" d="M0.807,36.768c0.021-0.015,0.042-0.027,0.062-0.042
		c0.079-0.001,0.145-0.041,0.215-0.069c0.36-0.143,0.683-0.361,1.031-0.532c0.333-0.162,0.656-0.345,0.987-0.514
		c0.242-0.123,0.47-0.275,0.721-0.386c0.085-0.037,0.188-0.072,0.232-0.173l-0.001-0.014l0.012-0.002
		c0.184-0.025,0.33-0.135,0.477-0.23c0.096-0.063,0.236-0.068,0.284-0.2c0.036-0.026,0.076-0.035,0.12-0.036
		c0.036-0.01,0.077-0.01,0.108-0.027c0.314-0.182,0.627-0.362,0.939-0.547c0.078-0.045,0.16-0.088,0.208-0.171l0.005-0.015
		l0.017-0.004c0.359-0.104,0.641-0.338,0.933-0.556c0.025-0.012,0.049-0.025,0.074-0.038c0.103-0.012,0.182-0.069,0.265-0.124
		c0.299-0.193,0.595-0.393,0.905-0.57c0.177-0.102,0.373-0.199,0.498-0.377c-0.001-0.018,0.005-0.024,0.021-0.026
		C9.08,32.096,9.204,32,9.328,31.918c0.435-0.285,0.861-0.587,1.29-0.883c0.053-0.035,0.091-0.078,0.11-0.141l0.004-0.014h0.014
		c0.063-0.004,0.114-0.035,0.165-0.068c0.449-0.291,0.862-0.633,1.301-0.938c0.202-0.14,0.373-0.33,0.613-0.415
		c0.158,0.076,0.119,0.204,0.095,0.334c-0.04,0.222-0.064,0.237-0.25,0.134c-0.122-0.069-0.261-0.046-0.342,0.063
		c-0.06,0.081-0.073,0.161,0.03,0.224c0.063-0.052-0.01-0.156,0.086-0.178c0.092-0.021,0.259,0.133,0.231,0.228
		c-0.043,0.144-0.071,0.315-0.167,0.417c-0.18,0.189-0.204,0.459-0.37,0.648c-0.018,0.02-0.025,0.059-0.019,0.085
		c0.031,0.127-0.003,0.263,0.029,0.386c0.063,0.242-0.016,0.43-0.178,0.6c-0.022,0.021-0.037,0.049-0.016,0.097
		c0.09-0.011,0.187-0.01,0.254,0.083c0.028,0.036,0.082,0.035,0.127,0.041c-0.159,0.167-0.385,0.215-0.578,0.322
		c-0.11,0.06-0.226,0.112-0.33,0.18c-0.465,0.3-0.977,0.507-1.467,0.758c-0.203,0.103-0.406,0.21-0.61,0.31
		c-0.19,0.094-0.379,0.193-0.575,0.279c-0.188,0.083-0.361,0.209-0.555,0.281c-0.113,0.043-0.199,0.163-0.34,0.126
		c-0.04-0.021-0.063-0.005-0.081,0.031c-0.04,0.062-0.11,0.056-0.167,0.083c-0.08,0-0.156,0.009-0.196,0.094H7.436
		c-0.132,0.012-0.248,0.057-0.322,0.174l-0.004,0.006c-0.077,0.008-0.162-0.022-0.221,0.053c-0.015,0.015-0.029,0.029-0.043,0.041
		c-0.081-0.004-0.151,0.012-0.186,0.096c-0.038,0.012-0.076,0.023-0.114,0.035c-0.125,0.062-0.271,0.066-0.389,0.146
		c-0.016,0.014-0.032,0.028-0.048,0.044c-0.051,0-0.102,0-0.135,0.048c-0.014,0.017-0.028,0.029-0.042,0.045
		c-0.059-0.005-0.113,0.001-0.146,0.061l-0.002,0.016l-0.014,0.007c-0.036,0.009-0.071,0.017-0.107,0.025
		c-0.058,0.006-0.121-0.018-0.173,0.028l0.002-0.001c-0.079,0.089-0.179,0.151-0.296,0.183c-0.098,0.002-0.205-0.022-0.271,0.085
		l-0.003,0.005c-0.061,0-0.113,0.01-0.141,0.071l0,0.014L4.77,36.265c-0.068,0.004-0.141,0-0.17,0.083l-0.009,0.01
		c-0.038,0.008-0.077,0.014-0.115,0.02c-0.243,0.108-0.48,0.231-0.73,0.314c-0.188,0.063-0.357,0.179-0.555,0.208
		c-0.066,0.01-0.101,0.065-0.159,0.083c-0.16,0.051-0.326,0.092-0.473,0.167c-0.382,0.195-0.785,0.337-1.184,0.484
		c-0.254,0.096-0.512,0.184-0.759,0.296c-0.19,0.089-0.4,0.116-0.586,0.21c-0.261,0.136-0.553,0.194-0.819,0.323
		c-0.174,0.087-0.396,0.103-0.566,0.195c-0.254,0.14-0.563,0.135-0.792,0.325c-0.378,0.049-0.698,0.272-1.065,0.362
		c-0.255,0.063-0.487,0.217-0.742,0.284c-0.289,0.075-0.556,0.201-0.833,0.301c-0.249,0.09-0.518,0.129-0.745,0.279
		c-0.097,0.066-0.22,0.063-0.33,0.104c-0.197,0.075-0.405,0.125-0.591,0.234c-0.102,0.06-0.221,0.044-0.333,0.099
		c-0.197,0.096-0.415,0.149-0.619,0.242c-0.111,0.05-0.245,0.094-0.378,0.117c-0.177,0.032-0.344,0.127-0.515,0.197
		c-0.062,0-0.124,0.001-0.172-0.049c0.107-0.077,0.223-0.137,0.348-0.179c0.058-0.004,0.119,0.002,0.161-0.05
		c0.01-0.014,0.02-0.026,0.03-0.04c0.065-0.012,0.139,0.012,0.193-0.046c0.018-0.017,0.036-0.034,0.054-0.051
		c0.048,0.001,0.097,0,0.13-0.045c0.099-0.1,0.225-0.147,0.356-0.185c0.018-0.014,0.037-0.027,0.056-0.044
		c0.037-0.014,0.075-0.027,0.111-0.044c0.071-0.008,0.149,0.017,0.208-0.048c0.018-0.015,0.037-0.03,0.055-0.046
		c0.049,0,0.098,0,0.127-0.048c0.049-0.097,0.178-0.053,0.234-0.137c0.078,0.004,0.144-0.013,0.178-0.093
		c0.106-0.095,0.252-0.081,0.373-0.134c0.069-0.002,0.143,0.007,0.18-0.075l0.008-0.015c0.024-0.011,0.049-0.021,0.074-0.032
		c0.035-0.02,0.069-0.041,0.103-0.063c0.052,0.002,0.103-0.001,0.131-0.056c0.013-0.013,0.026-0.026,0.04-0.039
		c0.062,0.006,0.118,0,0.146-0.066c0.242-0.146,0.526-0.198,0.771-0.339c0.21-0.089,0.417-0.184,0.611-0.303
		c0.016-0.01,0.021-0.039,0.031-0.059l0.006-0.006c0.084,0.001,0.165,0.003,0.244-0.042c0.146-0.078,0.304-0.136,0.455-0.207
		c0.147-0.069,0.323-0.089,0.437-0.226c0.017-0.01,0.032-0.02,0.048-0.029c0.175-0.025,0.329-0.11,0.484-0.184
		c0.73-0.351,1.459-0.703,2.182-1.068C0.335,37.038,0.599,36.952,0.807,36.768z"/>
	<path fill-rule="evenodd" clip-rule="evenodd" fill="#7C6ED5" d="M23.991,31.467c-0.112-0.032-0.104-0.15-0.157-0.224
		c0.119,0.017,0.184-0.114,0.289-0.114c0.112,0.001,0.123-0.058,0.128-0.142c0.01-0.14,0.084-0.24,0.198-0.315
		c0.036-0.024,0.09-0.031,0.086-0.107c-0.009-0.007-0.025-0.023-0.045-0.033c-0.169-0.094-0.175-0.108-0.086-0.273
		c0.072-0.134,0.137-0.271,0.26-0.369c0.057-0.047,0.09-0.107,0.049-0.181c-0.075-0.128-0.029-0.232,0.055-0.333
		c0.025-0.029,0.056-0.062,0.06-0.096c0.023-0.237,0.213-0.392,0.302-0.6c0.063-0.148,0.136-0.278,0.125-0.441
		c-0.008-0.156,0.037-0.286,0.188-0.36c0.061-0.029,0.099-0.087,0.079-0.149c-0.043-0.134,0.015-0.212,0.113-0.291
		c0.042-0.035,0.06-0.104,0.08-0.16c0.044-0.122,0.085-0.245,0.124-0.368c0.028-0.09,0.067-0.164,0.16-0.208
		c0.112-0.051,0.161-0.148,0.178-0.272c0.015-0.104,0.016-0.228,0.095-0.3c0.122-0.111,0.163-0.25,0.205-0.397
		c0.055-0.196,0.151-0.342,0.36-0.434c0.235-0.104,0.448-0.266,0.483-0.561c0.006-0.042,0.04-0.062,0.079-0.076
		c0.032,0.249,0.004,0.5,0.014,0.75c0.003,0.095-0.022,0.196,0.061,0.279c0.022,0.021,0.019,0.071,0.023,0.108
		c0.003,0.045,0,0.091,0,0.136c0.001,0.399,0.009,0.796,0.077,1.193c0.1,0.58,0.188,1.159,0.462,1.689
		c0.086,0.167,0.187,0.325,0.313,0.47c0.185,0.212,0.417,0.286,0.689,0.267c0.128-0.009,0.257-0.021,0.386-0.032
		c0.076,0.058,0.091,0.14,0.079,0.226c-0.033,0.226-0.06,0.455-0.263,0.607c-0.045,0.033-0.073,0.082-0.083,0.135
		c-0.03,0.152-0.118,0.277-0.184,0.414c-0.089,0.19-0.136,0.4-0.266,0.574c-0.023,0.033-0.023,0.088-0.025,0.131
		c-0.004,0.079-0.033,0.15-0.065,0.219c-0.083,0.179-0.163,0.361-0.247,0.539c-0.045,0.094-0.07,0.188-0.042,0.285
		c0.033,0.122-0.01,0.21-0.092,0.289c-0.087,0.088-0.18,0.195-0.175,0.313c0.012,0.237-0.236,0.42-0.127,0.671
		c0.006,0.016-0.008,0.048-0.022,0.063c-0.116,0.103-0.158,0.257-0.255,0.372c-0.072-0.01-0.141,0.083-0.213,0.005
		c-0.018-0.111-0.084-0.117-0.17-0.079c-0.039,0.009-0.073-0.003-0.101-0.028c-0.048-0.131-0.166-0.074-0.255-0.095l-0.013-0.003
		l-0.001-0.014c-0.02-0.044-0.045-0.068-0.092-0.029c-0.069-0.02-0.122-0.065-0.196-0.084c-0.163-0.04-0.299-0.143-0.442-0.231
		c-0.137-0.089-0.274-0.175-0.412-0.257c-0.181-0.104-0.322-0.256-0.49-0.374c-0.197-0.139-0.396-0.309-0.524-0.526
		c-0.044-0.075-0.091-0.14-0.154-0.194c-0.165-0.139-0.229-0.345-0.351-0.511c-0.021-0.029-0.027-0.071-0.063-0.088
		c-0.101-0.05-0.12-0.149-0.149-0.243c0.036-0.014,0.07-0.033,0.063-0.076C24.084,31.477,24.033,31.477,23.991,31.467z"/>
	<path fill-rule="evenodd" clip-rule="evenodd" fill="#9851DE" d="M22.932,27.087c-0.049-0.083-0.033-0.178-0.035-0.267
		c-0.005-0.259-0.003-0.517-0.011-0.775c-0.003-0.113-0.079-0.157-0.161-0.084c-0.214,0.188-0.48,0.296-0.692,0.491
		c-0.167,0.154-0.379,0.258-0.568,0.39c-0.17,0.12-0.347,0.23-0.515,0.352c-0.195,0.14-0.379,0.306-0.604,0.403
		c-0.104,0.046-0.185,0.129-0.271,0.194c-0.127,0.097-0.274,0.155-0.398,0.253c-0.058,0-0.111,0.01-0.14,0.069
		c-0.066,0.155-0.249,0.159-0.351,0.268c-0.047-0.039-0.101-0.071-0.139-0.117c-0.047-0.057-0.059-0.112,0.022-0.169
		c0.215-0.148,0.297-0.366,0.269-0.617c-0.012-0.114-0.023-0.207,0.082-0.282c0.207-0.149,0.32-0.356,0.361-0.607
		c0.021-0.127,0.054-0.252,0.16-0.344c0.052-0.044,0.08-0.111,0.095-0.179c0.043-0.182,0.064-0.374,0.212-0.515
		c0.02-0.018,0.017-0.057,0.028-0.085c0.126-0.3,0.261-0.593,0.55-0.78c0.14-0.092,0.136-0.098,0.042-0.227
		c-0.111-0.153-0.088-0.245,0.097-0.294c0.132-0.035,0.167-0.113,0.174-0.229c0.001-0.022,0.002-0.045,0.001-0.068
		c-0.003-0.11,0.029-0.193,0.153-0.215c0.087-0.017,0.144-0.082,0.193-0.15c0.075-0.105,0.138-0.219,0.229-0.311
		c0.046-0.045,0.063-0.103,0.064-0.166c0.001-0.12,0.052-0.203,0.173-0.235c0.046-0.013,0.105-0.043,0.08-0.089
		c-0.076-0.136,0-0.179,0.106-0.229c0.054-0.024,0.044-0.091,0.027-0.145c-0.025-0.082-0.003-0.144,0.059-0.204
		c0.064-0.063,0.092-0.154,0.171-0.21c0.061-0.044,0.082-0.109,0.027-0.178c0.029-0.015,0.058-0.029,0.087-0.044
		c0.062,0.045,0.081,0.006,0.092-0.048c0-0.014,0-0.028,0.002-0.042c0.154-0.007,0.156-0.129,0.177-0.237l-0.002,0
		c0.134-0.012,0.235-0.07,0.284-0.203c0.044-0.068,0.091-0.133,0.172-0.162c0.121-0.012,0.207-0.09,0.291-0.165
		c0.406-0.362,0.833-0.698,1.259-1.039c0.077-0.061,0.156-0.122,0.193-0.218c0.014-0.012,0.028-0.025,0.043-0.038
		c0.064-0.001,0.109-0.042,0.159-0.078c0.148-0.103,0.275-0.233,0.44-0.314c0.343-0.168,0.687-0.275,1.057-0.084
		c0.026,0.013,0.058,0.014,0.088,0.021c0.015,0.008,0.03,0.016,0.044,0.024c0.018,0.079,0.07,0.127,0.141,0.16
		c0.013,0.018,0.026,0.037,0.039,0.055c0.021,0.087,0.078,0.151,0.132,0.217c0.019,0.028,0.026,0.058,0.019,0.091
		c-0.047,0.018-0.113,0.034-0.068,0.101c0.034,0.05,0.076,0.011,0.109-0.019c0.006,0.004,0.017,0.007,0.019,0.012
		c0.072,0.253,0.162,0.503,0.11,0.773c-0.068-0.114-0.064-0.246-0.093-0.37c-0.012-0.052-0.021-0.112-0.073-0.134
		c-0.065-0.028-0.092,0.034-0.122,0.076c-0.036,0.051-0.083,0.088-0.133,0.124c-0.047,0.032-0.087,0.08-0.07,0.133
		c0.042,0.13,0.007,0.218-0.113,0.279c-0.017,0.008-0.022,0.039-0.034,0.059c-0.116,0.209-0.228,0.421-0.473,0.518
		c-0.084,0.033-0.114,0.117-0.115,0.207c-0.001,0.088,0.061,0.112,0.13,0.131c0.028,0.007,0.059,0.021,0.081,0.041
		c0.056,0.044,0.067,0.103,0.023,0.159c-0.05,0.066-0.09,0.018-0.128-0.022c-0.041-0.044-0.097-0.112-0.15-0.061
		c-0.169,0.157-0.45,0.232-0.421,0.544c0.007,0.083-0.028,0.157-0.112,0.176c-0.21,0.047-0.283,0.224-0.358,0.385
		c-0.095,0.208-0.213,0.397-0.348,0.583c-0.128,0.175-0.247,0.368-0.231,0.604c0.009,0.117-0.029,0.207-0.144,0.256
		c-0.116,0.05-0.146,0.149-0.187,0.263c-0.104,0.286-0.149,0.605-0.438,0.797c-0.098,0.066-0.135,0.193-0.064,0.307
		c0.077,0.123,0.025,0.198-0.067,0.271c-0.073,0.057-0.149,0.12-0.17,0.209c-0.064,0.269-0.143,0.53-0.295,0.766
		c-0.011,0.017-0.003,0.045-0.01,0.067c-0.034,0.116-0.09,0.21-0.224,0.226C22.956,27.087,22.944,27.086,22.932,27.087z
		 M22.475,22.226c-0.007,0-0.016-0.001-0.019,0.002c-0.014,0.015-0.01,0.026,0.01,0.028c0.005,0,0.014-0.007,0.015-0.012
		S22.477,22.232,22.475,22.226z"/>
	<path fill-rule="evenodd" clip-rule="evenodd" fill="#4F9FC6" d="M37.231,31.626c-0.021,0.063-0.066,0.11-0.121,0.13
		c-0.248,0.092-0.469,0.244-0.678,0.391c-0.25,0.178-0.542,0.273-0.79,0.461c-0.172,0.129-0.403,0.2-0.608,0.3
		c-0.385,0.185-0.759,0.398-1.147,0.574c-0.217,0.098-0.438,0.18-0.645,0.299c-0.06,0.033-0.147,0.014-0.223,0.019
		c0.005-0.038,0.005-0.097,0.039-0.101c0.204-0.015,0.214-0.187,0.226-0.314c0.025-0.294,0.088-0.562,0.303-0.78
		c0.068-0.069,0.097-0.171,0.121-0.269c0.038-0.149,0.102-0.29,0.204-0.403c0.122-0.134,0.187-0.302,0.229-0.463
		c0.047-0.177,0.131-0.32,0.227-0.465c0.08-0.116,0.194-0.221,0.13-0.387c-0.008-0.023,0.014-0.059,0.023-0.087
		c0.111-0.345,0.398-0.602,0.486-0.96c0.009-0.039,0.055-0.073,0.086-0.104c0.258-0.249,0.342-0.599,0.511-0.899
		c0.019-0.031,0.018-0.073,0.023-0.111c0.007-0.046,0.021-0.092,0.056-0.122c0.195-0.161,0.288-0.388,0.397-0.605
		c0.047-0.095,0.159-0.148,0.178-0.261c0.021-0.126,0.095-0.224,0.163-0.322c0.087-0.126,0.149-0.264,0.216-0.401
		c0.047-0.095,0.044-0.209,0.111-0.297c0.067-0.086,0.102-0.183,0.113-0.293c0.019-0.155,0.046-0.182,0.198-0.181
		c0.096,0,0.145-0.035,0.169-0.118c0.038-0.137,0.095-0.25,0.243-0.305c0.078-0.03,0.115-0.12,0.148-0.196
		c0.042-0.105,0.069-0.216,0.105-0.325c0.203-0.086,0.423-0.018,0.631-0.068c0.634,0.008,1.202,0.208,1.732,0.559
		c0.355,0.235,0.669,0.515,0.959,0.822c0.041,0.044,0.086,0.086,0.096,0.151c-0.112-0.027-0.171-0.123-0.249-0.194
		c-0.131-0.126-0.258-0.258-0.39-0.384c-0.06-0.056-0.118-0.05-0.124,0.042c-0.006,0.123-0.051,0.202-0.179,0.224
		c-0.039,0.006-0.072,0.034-0.084,0.071c-0.039,0.118-0.13,0.206-0.181,0.314c-0.148,0.319-0.325,0.616-0.595,0.849
		c-0.027,0.023-0.046,0.061-0.06,0.095c-0.18,0.459-0.518,0.819-0.771,1.231c-0.025,0.039-0.047,0.085-0.083,0.108
		c-0.137,0.088-0.154,0.232-0.202,0.367c-0.062,0.17-0.069,0.36-0.171,0.516c-0.132,0.203-0.228,0.426-0.365,0.626
		c-0.103,0.149-0.208,0.31-0.255,0.481c-0.052,0.189-0.165,0.336-0.255,0.499C37.095,31.5,37.084,31.494,37.231,31.626z"/>
	<path fill-rule="evenodd" clip-rule="evenodd" fill="#2AE7C0" d="M49.716,33.83c0.011,0.145-0.008,0.271-0.02,0.399
		c-0.009,0.078-0.054,0.123-0.117,0.156c-0.074,0.041-0.113,0.103-0.107,0.186c0.009,0.125-0.054,0.195-0.159,0.25
		c-0.059,0.032-0.107,0.084-0.163,0.123c-0.073,0.049-0.102,0.115-0.075,0.196c0.027,0.086-0.006,0.163-0.009,0.246
		c-0.007,0.172-0.05,0.301-0.258,0.298c-0.066,0-0.103,0.06-0.134,0.112c-0.167,0.271-0.353,0.534-0.348,0.872
		c0,0.08-0.031,0.137-0.115,0.146c-0.117,0.012-0.169,0.094-0.197,0.194c-0.032,0.112-0.112,0.197-0.157,0.302
		c-0.056,0.13-0.014,0.176,0.127,0.177c0.501,0.002,1,0.011,1.502,0.017c0.045,0.001,0.088,0.018,0.123,0.05
		c-0.082,0.027-0.166,0.015-0.249,0.015c-0.943,0-1.885,0-2.829-0.003c-0.101,0-0.212,0.033-0.293-0.072
		c-0.027-0.036-0.085-0.008-0.13-0.008c-0.16-0.002-0.352,0.055-0.473-0.014c-0.217-0.122-0.473,0.018-0.666-0.152
		c-0.03-0.026-0.102-0.011-0.156-0.011c-0.08,0-0.17,0.034-0.225-0.061c-0.007-0.01-0.03-0.021-0.04-0.019
		c-0.183,0.055-0.324-0.089-0.497-0.106c-0.12-0.013-0.263-0.085-0.387-0.114c-0.146-0.033-0.271-0.159-0.436-0.114
		c-0.032,0.009-0.045-0.032-0.059-0.06c-0.027-0.063-0.082-0.064-0.138-0.064l-0.004-0.008c-0.007-0.054-0.043-0.076-0.091-0.089
		c0.158-0.205,0.261-0.436,0.346-0.68c0.079-0.228,0.198-0.438,0.355-0.628c0.095-0.117,0.207-0.236,0.239-0.383
		c0.054-0.243,0.054-0.5,0.265-0.68c0.027-0.217,0.2-0.331,0.338-0.469c0.158-0.158,0.256-0.355,0.323-0.563
		c0.038-0.118,0.088-0.222,0.178-0.308c0.083-0.078,0.167-0.157,0.241-0.242c0.124-0.141,0.22-0.291,0.154-0.494
		c-0.025-0.072-0.014-0.137,0.071-0.164c0.041,0.003,0.081,0.006,0.124,0.008l0.007,0.008c0.016,0.064,0.066,0.081,0.123,0.084
		h0.013l0.005,0.012c0.018,0.01,0.034,0.018,0.052,0.027c0.014,0.004,0.025,0.012,0.039,0.016c0.013,0.012,0.024,0.023,0.036,0.033
		c0.04,0.005,0.078,0.016,0.101,0.055c0.012,0.053,0.034,0.084,0.093,0.051c0.065-0.001,0.093,0.057,0.138,0.086
		c0.02,0.027,0.046,0.038,0.078,0.038c0.018,0.013,0.038,0.024,0.056,0.036c0.026,0.049,0.073,0.057,0.122,0.058
		c0.021,0.013,0.041,0.024,0.061,0.036c0.023,0.039,0.06,0.051,0.101,0.047c0.028,0.015,0.057,0.027,0.083,0.043
		c0.022,0.036,0.056,0.051,0.098,0.049c0.016,0.007,0.029,0.014,0.045,0.02c0.023,0.027,0.055,0.033,0.087,0.027l0.001,0.006
		c0.074,0.133,0.216,0.163,0.338,0.212c0.17,0.067,0.327,0.193,0.53,0.159c0.191,0.038,0.372,0.108,0.558,0.169
		c0.521,0.164,1.055,0.283,1.586,0.409c0.063,0.017,0.141-0.019,0.189,0.052C49.993,33.879,49.865,33.835,49.716,33.83
		c-0.017-0.007-0.006,0.005,0.006,0.01c0.023,0.015,0.03,0.009,0.017-0.016c-0.007-0.011-0.015-0.026-0.026-0.032
		C49.695,33.784,49.686,33.796,49.716,33.83z M49.297,33.705c-0.012-0.009-0.022-0.022-0.033-0.022c-0.01,0-0.03,0.012-0.032,0.022
		c-0.002,0.026,0.02,0.036,0.043,0.03C49.283,33.733,49.29,33.716,49.297,33.705z"/>
	<path fill-rule="evenodd" clip-rule="evenodd" fill="#8D5CDB" d="M22.968,27.093c0.133-0.016,0.19-0.11,0.224-0.226
		c0.007-0.021-0.001-0.05,0.01-0.067c0.152-0.235,0.231-0.497,0.295-0.766c0.021-0.09,0.097-0.153,0.17-0.209
		c0.092-0.073,0.144-0.148,0.067-0.271c-0.071-0.113-0.034-0.241,0.064-0.307c0.289-0.192,0.333-0.511,0.438-0.797
		c0.041-0.113,0.071-0.213,0.187-0.263c0.115-0.049,0.153-0.139,0.144-0.256c-0.016-0.237,0.103-0.429,0.231-0.604
		c0.135-0.185,0.253-0.375,0.348-0.583c0.075-0.162,0.148-0.338,0.358-0.385c0.084-0.02,0.12-0.093,0.112-0.176
		c-0.028-0.312,0.252-0.388,0.421-0.544c0.053-0.051,0.109,0.017,0.15,0.061c0.038,0.041,0.078,0.088,0.128,0.022
		c0.043-0.056,0.033-0.115-0.023-0.159c-0.022-0.02-0.053-0.034-0.081-0.041c-0.07-0.02-0.131-0.043-0.13-0.131
		c0.001-0.09,0.031-0.174,0.115-0.207c0.245-0.096,0.357-0.308,0.473-0.518c0.011-0.02,0.017-0.051,0.034-0.059
		c0.12-0.061,0.155-0.149,0.113-0.279c-0.017-0.053,0.023-0.101,0.07-0.133c0.05-0.035,0.098-0.072,0.133-0.124
		c0.03-0.042,0.056-0.104,0.122-0.076c0.053,0.022,0.061,0.082,0.073,0.134c0.028,0.125,0.025,0.256,0.093,0.37
		c0.015,0.037,0.029,0.074,0.044,0.11c0.001,0.454,0.002,0.908,0.005,1.362c0,0.09-0.017,0.184,0.039,0.265
		c0.024,0.081,0.014,0.166,0.014,0.248c0.002,0.65,0.002,1.301,0,1.952c0,0.075-0.008,0.15-0.012,0.226
		c-0.039,0.014-0.073,0.034-0.079,0.076c-0.035,0.295-0.248,0.457-0.483,0.561c-0.208,0.091-0.305,0.237-0.36,0.434
		c-0.042,0.147-0.083,0.286-0.205,0.397c-0.079,0.072-0.081,0.196-0.095,0.3c-0.018,0.124-0.066,0.221-0.178,0.272
		c-0.093,0.043-0.132,0.118-0.16,0.208c-0.039,0.124-0.08,0.247-0.124,0.368c-0.02,0.056-0.038,0.125-0.08,0.16
		c-0.098,0.079-0.156,0.157-0.113,0.291c0.02,0.062-0.018,0.12-0.079,0.149c-0.151,0.074-0.196,0.204-0.188,0.36
		c0.01,0.164-0.063,0.293-0.125,0.441c-0.088,0.208-0.278,0.363-0.302,0.6c-0.004,0.034-0.035,0.066-0.06,0.096
		c-0.084,0.101-0.129,0.205-0.055,0.333c0.041,0.073,0.008,0.134-0.049,0.181c-0.124,0.098-0.188,0.235-0.26,0.369
		c-0.089,0.165-0.083,0.18,0.086,0.273c0.02,0.01,0.036,0.026,0.045,0.033c0.004,0.076-0.05,0.083-0.086,0.107
		c-0.113,0.075-0.188,0.176-0.198,0.315c-0.005,0.084-0.016,0.143-0.128,0.142c-0.105,0-0.169,0.131-0.289,0.114
		c-0.026-0.017-0.028-0.038-0.007-0.06c0.005-0.078-0.03-0.119-0.107-0.123c-0.006-0.031-0.013-0.063-0.019-0.094
		c0.059-0.083,0.07-0.184,0.01-0.257c-0.103-0.127-0.178-0.261-0.214-0.419c-0.006-0.022-0.045-0.035-0.07-0.053
		c-0.027-0.035-0.024-0.072-0.008-0.111c0.006-0.075-0.019-0.135-0.097-0.162c-0.029-0.08-0.015-0.161-0.007-0.242
		c0.019-0.063-0.023-0.074-0.071-0.08c-0.042-0.081-0.023-0.164-0.01-0.246c-0.022-0.106-0.044-0.213-0.038-0.324
		c0.004-0.058,0.003-0.118-0.057-0.154c-0.012-0.018-0.024-0.036-0.037-0.054c0.003-0.016,0.007-0.033,0.01-0.049
		c0.053-0.074,0.053-0.148-0.001-0.222c-0.029-0.32-0.13-0.634-0.109-0.961c0.003-0.055-0.037-0.114-0.056-0.17
		c-0.021-0.101-0.009-0.201-0.001-0.302C22.951,27.138,22.959,27.115,22.968,27.093z"/>
	<path fill-rule="evenodd" clip-rule="evenodd" fill="#6389CC" d="M27.655,34.359c0.098-0.115,0.14-0.27,0.255-0.372
		c0.014-0.015,0.029-0.047,0.022-0.063c-0.109-0.251,0.139-0.434,0.127-0.671c-0.005-0.117,0.087-0.225,0.175-0.313
		c0.082-0.079,0.125-0.167,0.092-0.289c-0.028-0.098-0.003-0.191,0.042-0.285c0.084-0.178,0.164-0.36,0.247-0.539
		c0.032-0.068,0.061-0.14,0.065-0.219c0.002-0.043,0.002-0.098,0.025-0.131c0.13-0.174,0.177-0.384,0.266-0.574
		c0.065-0.137,0.153-0.262,0.184-0.414c0.01-0.053,0.038-0.102,0.083-0.135c0.203-0.152,0.229-0.382,0.263-0.607
		c0.012-0.086-0.003-0.168-0.079-0.226c0.447-0.069,0.863-0.246,1.281-0.405c0.301-0.113,0.595-0.258,0.874-0.426
		c0.335-0.203,0.673-0.401,1.006-0.608c0.263-0.162,0.525-0.328,0.781-0.499c0.311-0.204,0.612-0.416,0.919-0.621
		c0.371-0.248,0.73-0.513,1.09-0.778c0.079-0.059,0.152-0.125,0.252-0.148c-0.014,0.082-0.068,0.13-0.134,0.176
		c-0.279,0.196-0.561,0.389-0.831,0.598c-0.109,0.084-0.284,0.127-0.266,0.325c0.004,0.015-0.027,0.034-0.039,0.052
		c-0.135,0.176-0.243,0.364-0.308,0.577c-0.02,0.065-0.041,0.131-0.088,0.184c-0.104,0.117-0.153,0.261-0.197,0.407
		c-0.016,0.051-0.023,0.107-0.051,0.15c-0.146,0.223-0.217,0.484-0.363,0.707c-0.15,0.227-0.211,0.503-0.4,0.708
		c-0.176,0.187-0.192,0.454-0.332,0.661c-0.014,0.021-0.005,0.061-0.009,0.09c-0.033,0.195-0.083,0.387-0.177,0.564
		c-0.114,0.213-0.236,0.426-0.349,0.639c-0.151,0.282-0.245,0.6-0.39,0.891c-0.033,0.067-0.044,0.154-0.092,0.207
		c-0.144,0.154-0.125,0.391-0.292,0.53c-0.015,0.012-0.015,0.043-0.021,0.063c-0.082,0.274-0.102,0.566-0.23,0.826
		c-0.036,0.096-0.119,0.076-0.193,0.077c-0.106,0.001-0.202,0.008-0.305,0.06c-0.129,0.06-0.284,0.016-0.429,0.023
		c-0.111,0.006-0.22,0.038-0.324,0.055c-0.305,0.049-0.623,0.063-0.927,0.004c-0.116-0.024-0.233-0.076-0.348-0.056
		c-0.265,0.046-0.498-0.112-0.755-0.099C27.723,34.458,27.691,34.398,27.655,34.359z"/>
	<path fill-rule="evenodd" clip-rule="evenodd" fill="#A244DE" d="M12.336,32.619c-0.045-0.006-0.099-0.005-0.127-0.041
		c-0.068-0.093-0.164-0.094-0.254-0.083c-0.021-0.048-0.006-0.075,0.016-0.097c0.163-0.17,0.242-0.357,0.178-0.6
		c-0.032-0.123,0.001-0.259-0.029-0.386c-0.006-0.026,0-0.065,0.019-0.085c0.166-0.189,0.19-0.459,0.37-0.648
		c0.096-0.102,0.124-0.273,0.167-0.417c0.028-0.095-0.139-0.249-0.231-0.228c-0.096,0.021-0.023,0.126-0.086,0.178
		c-0.103-0.063-0.09-0.143-0.03-0.224c0.081-0.108,0.22-0.132,0.342-0.063c0.187,0.104,0.211,0.088,0.25-0.134
		c0.023-0.13,0.063-0.258-0.095-0.334c0.031-0.055,0.063-0.109,0.095-0.164l0.001-0.014h0.014c0.121-0.011,0.206-0.092,0.296-0.16
		c0.556-0.422,1.111-0.847,1.667-1.27c0.056-0.043,0.105-0.088,0.124-0.158l0.01-0.012c0.082-0.021,0.151-0.065,0.217-0.118
		c0.265-0.212,0.533-0.42,0.799-0.632c0.083-0.065,0.169-0.128,0.205-0.234c0.021-0.039,0.052-0.066,0.095-0.075
		c0.133-0.047,0.256-0.104,0.317-0.245c0.024-0.056,0.063-0.094,0.12-0.113c0.177-0.065,0.788-0.555,0.886-0.712l0.006-0.017
		l0.017-0.002c0.074-0.003,0.131-0.032,0.16-0.104c0.018-0.044,0.052-0.07,0.095-0.083c0.094-0.014,0.149-0.071,0.179-0.159v-0.015
		c0,0,0.014-0.007,0.014-0.007c0.083,0.003,0.138-0.046,0.196-0.095c0.121-0.1,0.24-0.204,0.382-0.272
		c0.076,0.097,0.089,0.166-0.031,0.26c-0.138,0.108-0.284,0.231-0.296,0.437c-0.003,0.038-0.027,0.075-0.062,0.092
		c-0.216,0.101-0.234,0.303-0.246,0.5c-0.01,0.174-0.126,0.308-0.154,0.473c-0.006,0.042-0.049,0.06-0.088,0.052
		c-0.14-0.022-0.16,0.087-0.16,0.169c0,0.182-0.072,0.359-0.034,0.542c0.018,0.085-0.023,0.135-0.093,0.159
		c-0.166,0.057-0.293,0.149-0.357,0.319c-0.009,0.026-0.042,0.044-0.063,0.065c-0.123,0.124-0.113,0.213,0.032,0.303
		c0.135,0.084,0.135,0.085,0.013,0.174c-0.197,0.144-0.335,0.309-0.242,0.577c0.024,0.071,0.03,0.148,0.046,0.222
		c-0.022,0.003-0.045,0.005-0.066,0.01c-0.032,0.008-0.053,0.028-0.049,0.063c0.001,0.012,0.014,0.027,0.024,0.031
		c0.035,0.01,0.056-0.013,0.07-0.041c0.01-0.02,0.014-0.041,0.021-0.063c0.078-0.005,0.156-0.01,0.233-0.014
		c-0.056,0.105-0.141,0.168-0.203,0.25c-0.089,0.113-0.158,0.236-0.34,0.191c-0.056-0.014-0.122,0.029-0.128,0.1
		c-0.005,0.063,0.043,0.096,0.098,0.105c0.091,0.018,0.155,0.058,0.157,0.16c-0.012,0.01-0.026,0.021-0.038,0.031
		c-0.236,0.006-0.236,0.006-0.281,0.191c-0.186,0.161-0.419,0.246-0.622,0.385c-0.167,0.115-0.344,0.221-0.517,0.33
		c-0.191,0.121-0.39,0.236-0.585,0.349c-0.229,0.133-0.441,0.292-0.688,0.405c-0.169,0.076-0.349,0.174-0.5,0.292
		c-0.102,0.078-0.211,0.137-0.319,0.197C12.949,32.288,12.66,32.484,12.336,32.619z M17.892,25.926
		c-0.004,0.005-0.013,0.01-0.012,0.015c0,0.021,0.012,0.025,0.027,0.013c0.004-0.003,0.005-0.014,0.003-0.018
		C17.907,25.93,17.899,25.928,17.892,25.926z"/>
	<path fill-rule="evenodd" clip-rule="evenodd" fill="#5896CA" d="M31.058,34.392c0.129-0.26,0.148-0.552,0.23-0.826
		c0.007-0.02,0.007-0.051,0.021-0.063c0.167-0.14,0.148-0.376,0.292-0.53c0.048-0.053,0.059-0.14,0.092-0.207
		c0.145-0.291,0.238-0.608,0.39-0.891c0.112-0.213,0.234-0.426,0.349-0.639c0.094-0.178,0.144-0.369,0.177-0.564
		c0.004-0.029-0.005-0.068,0.009-0.09c0.14-0.207,0.156-0.475,0.332-0.661c0.189-0.205,0.25-0.481,0.4-0.708
		c0.146-0.223,0.217-0.484,0.363-0.707c0.027-0.042,0.035-0.099,0.051-0.15c0.044-0.146,0.094-0.291,0.197-0.407
		c0.047-0.053,0.068-0.119,0.088-0.184c0.064-0.212,0.173-0.401,0.308-0.577c0.012-0.018,0.043-0.037,0.039-0.052
		c-0.019-0.198,0.156-0.241,0.266-0.325c0.271-0.209,0.552-0.401,0.831-0.598c0.065-0.045,0.12-0.094,0.134-0.176l0.003-0.001
		c0.092,0.001,0.15-0.057,0.219-0.106c0.3-0.219,0.59-0.455,0.925-0.62c0.065-0.033,0.149-0.048,0.179-0.131
		c0.038-0.053,0.091-0.047,0.144-0.04c0.037,0.022,0.064,0.009,0.085-0.026c0.057-0.046,0.12-0.067,0.195-0.057
		c0.119,0.025,0.231-0.053,0.352-0.025c-0.036,0.108-0.063,0.22-0.105,0.325c-0.033,0.076-0.07,0.166-0.148,0.196
		c-0.148,0.055-0.205,0.168-0.243,0.305c-0.024,0.083-0.073,0.118-0.169,0.118c-0.152-0.001-0.18,0.025-0.198,0.181
		c-0.012,0.11-0.046,0.207-0.113,0.293c-0.067,0.087-0.064,0.202-0.111,0.297c-0.066,0.137-0.129,0.274-0.216,0.401
		c-0.068,0.099-0.143,0.196-0.163,0.322c-0.019,0.112-0.131,0.166-0.178,0.261c-0.109,0.217-0.202,0.444-0.397,0.605
		c-0.035,0.03-0.049,0.076-0.056,0.122c-0.006,0.038-0.005,0.08-0.023,0.111c-0.169,0.3-0.253,0.65-0.511,0.899
		c-0.031,0.031-0.077,0.065-0.086,0.104c-0.088,0.358-0.375,0.615-0.486,0.96c-0.01,0.028-0.031,0.063-0.023,0.087
		c0.064,0.166-0.05,0.271-0.13,0.387c-0.096,0.145-0.18,0.288-0.227,0.465c-0.043,0.161-0.107,0.329-0.229,0.463
		c-0.103,0.113-0.166,0.254-0.204,0.403c-0.024,0.098-0.053,0.199-0.121,0.269c-0.215,0.219-0.277,0.486-0.303,0.78
		c-0.012,0.128-0.021,0.3-0.226,0.314c-0.034,0.004-0.034,0.063-0.039,0.101c-0.013,0.118-0.138,0.106-0.19,0.118
		c-0.244,0.054-0.451,0.221-0.71,0.216c-0.085-0.001-0.159,0.056-0.224,0.091c-0.16,0.088-0.348,0.041-0.507,0.137
		C31.303,34.413,31.17,34.386,31.058,34.392z"/>
	<path fill-rule="evenodd" clip-rule="evenodd" fill="#30D4C0" d="M45.448,32.064c-0.085,0.027-0.097,0.092-0.071,0.164
		c0.065,0.203-0.03,0.354-0.154,0.494c-0.074,0.085-0.158,0.164-0.241,0.242c-0.09,0.086-0.14,0.189-0.178,0.308
		c-0.067,0.207-0.165,0.404-0.323,0.563c-0.138,0.138-0.311,0.252-0.338,0.469c-0.211,0.18-0.211,0.437-0.265,0.68
		c-0.032,0.146-0.145,0.266-0.239,0.383c-0.157,0.189-0.276,0.4-0.355,0.628c-0.085,0.244-0.188,0.475-0.346,0.68
		c-0.188-0.023-0.346-0.139-0.528-0.182c-0.119,0.003-0.184-0.121-0.298-0.13c-0.023-0.102-0.103-0.094-0.18-0.094l-0.002-0.004
		c-0.115-0.144-0.267-0.229-0.442-0.273c-0.063-0.081-0.15-0.119-0.242-0.155c-0.007-0.04-0.033-0.065-0.074-0.075l-0.012-0.004
		l-0.001-0.013c-0.032-0.067-0.092-0.069-0.157-0.063c-0.103-0.079-0.157-0.221-0.305-0.244c0.028-0.027,0.056-0.053,0.083-0.08
		c0.105-0.064,0.135-0.156,0.045-0.244c-0.104-0.102-0.062-0.174,0.02-0.248c0.085-0.074,0.128-0.162,0.132-0.278
		c0.004-0.081,0.034-0.164,0.056-0.244c0.018-0.067,0.046-0.142,0.118-0.157c0.204-0.043,0.25-0.191,0.23-0.361
		c-0.033-0.272,0.098-0.487,0.27-0.649c0.197-0.188,0.273-0.41,0.328-0.654c0.043-0.187,0.188-0.308,0.28-0.464
		c0.238-0.042,0.271-0.2,0.223-0.403c-0.001-0.005,0-0.015,0-0.021c0.017-0.134,0.06-0.161,0.183-0.112
		c0.162,0.063,0.162,0.063,0.235-0.096c0.014-0.027,0.02-0.062,0.041-0.081c0.171-0.159,0.231-0.368,0.268-0.59
		c0.019-0.11,0.067-0.2,0.166-0.26c0.079-0.048,0.112-0.12,0.111-0.211c0.092,0.017,0.123,0.134,0.224,0.141
		c0.04,0.024,0.075,0.056,0.09,0.103c0.063,0.217,0.222,0.346,0.412,0.444l0.004,0.003c0.008,0.053,0.039,0.081,0.091,0.088
		l0.001,0.001c0.007,0.053,0.037,0.083,0.09,0.091l0.002,0.002c0.034,0.136,0.121,0.214,0.261,0.23
		c0.065,0.028,0.107,0.082,0.149,0.135c0.021,0.018,0.041,0.033,0.062,0.049c0.03,0.008,0.056,0.025,0.072,0.053
		c0.015,0.059,0.055,0.08,0.11,0.082c0.026,0.02,0.052,0.042,0.079,0.061c0.013,0.01,0.023,0.02,0.037,0.029
		c0.05,0.027,0.103,0.053,0.141,0.1c0.013,0.051,0.049,0.074,0.099,0.078l-0.002-0.004C45.418,32,45.434,32.031,45.448,32.064z"/>
	<path fill-rule="evenodd" clip-rule="evenodd" fill="#3BBCC0" d="M39.507,34.26c-0.059-0.032-0.112-0.069-0.137-0.136
		c-0.009-0.084-0.057-0.131-0.141-0.137c-0.09-0.212-0.271-0.361-0.404-0.541c-0.158-0.212-0.287-0.442-0.458-0.646
		c-0.065-0.077-0.101-0.181-0.15-0.273c0.169-0.046,0.172-0.046,0.157-0.202c-0.012-0.139-0.026-0.281,0.119-0.363
		c0.188-0.105,0.27-0.279,0.348-0.465c0.109-0.266,0.283-0.5,0.386-0.771c0.017-0.044,0.071-0.076,0.107-0.113
		c0.074-0.075,0.182-0.139,0.219-0.229c0.095-0.232,0.247-0.438,0.317-0.68c0.024-0.09,0.062-0.172,0.102-0.253
		c0.104-0.202,0.284-0.36,0.333-0.592c0.009-0.037,0.044-0.062,0.08-0.075c0.149-0.054,0.213-0.184,0.283-0.312
		c0.113-0.205,0.136-0.449,0.289-0.638c0.059-0.071,0.098-0.145,0.198-0.168c0.146-0.034,0.238-0.137,0.266-0.283
		c0.023-0.124,0.08-0.228,0.144-0.332c0.3,0.37,0.527,0.787,0.78,1.187c0.357,0.565,0.695,1.143,1.041,1.716
		c0.019,0.032,0.03,0.067,0.045,0.101c-0.057-0.01-0.096-0.04-0.126-0.088c-0.104-0.167-0.21-0.334-0.313-0.502
		c-0.097-0.154-0.191-0.311-0.289-0.464c-0.019-0.031-0.042-0.067-0.089-0.049c-0.033,0.012-0.035,0.045-0.041,0.075
		c-0.044,0.234-0.159,0.426-0.355,0.561c-0.132,0.09-0.219,0.216-0.269,0.358c-0.073,0.212-0.254,0.36-0.312,0.579
		c-0.013,0.046-0.063,0.063-0.104,0.082c-0.134,0.053-0.176,0.166-0.172,0.293c0.003,0.08-0.01,0.153-0.038,0.223
		c-0.096,0.22-0.278,0.396-0.323,0.641c-0.005,0.02-0.025,0.038-0.044,0.053c-0.049,0.039-0.079,0.092-0.096,0.15
		c-0.028,0.101-0.075,0.176-0.191,0.199c-0.111,0.025-0.164,0.107-0.141,0.225c0.012,0.063,0.021,0.123-0.043,0.162
		c-0.097,0.062-0.133,0.162-0.169,0.264c-0.073,0.199-0.162,0.387-0.327,0.537c-0.097,0.091-0.179,0.214-0.228,0.339
		c-0.072,0.18-0.219,0.357-0.084,0.574c0.023,0.036-0.014,0.089-0.031,0.13c-0.024-0.004-0.043-0.018-0.049-0.043
		C39.589,34.301,39.56,34.269,39.507,34.26z"/>
	<path fill-rule="evenodd" clip-rule="evenodd" fill="#9C4ADD" d="M16.799,29.934c-0.001-0.103-0.065-0.143-0.157-0.16
		c-0.055-0.01-0.103-0.043-0.098-0.105c0.007-0.07,0.072-0.113,0.128-0.1c0.182,0.045,0.251-0.078,0.34-0.191
		c0.063-0.082,0.147-0.145,0.203-0.25c-0.077,0.004-0.155,0.009-0.233,0.014l0,0c-0.016-0.074-0.022-0.151-0.046-0.222
		c-0.093-0.268,0.045-0.433,0.242-0.577c0.123-0.089,0.123-0.089-0.013-0.174c-0.145-0.09-0.154-0.179-0.032-0.303
		c0.021-0.021,0.054-0.039,0.063-0.065c0.064-0.17,0.191-0.263,0.357-0.319c0.07-0.024,0.111-0.074,0.093-0.159
		c-0.039-0.183,0.034-0.359,0.034-0.542c0-0.082,0.02-0.191,0.16-0.169c0.039,0.008,0.082-0.01,0.088-0.052
		c0.028-0.165,0.145-0.299,0.154-0.473c0.012-0.196,0.029-0.398,0.246-0.5c0.035-0.017,0.059-0.054,0.062-0.092
		c0.012-0.205,0.158-0.328,0.296-0.437c0.12-0.094,0.107-0.163,0.031-0.26c0.045-0.062,0.09-0.124,0.135-0.186
		c0.016-0.045,0.047-0.075,0.093-0.092c0.335-0.168,0.6-0.424,0.862-0.684c0.005-0.005,0.005-0.014,0.008-0.022l0.003-0.016
		l0.015-0.003c0.172-0.082,0.344-0.165,0.434-0.35c0.023-0.022,0.045-0.044,0.068-0.065c0.068-0.013,0.128-0.046,0.181-0.09
		c0.254-0.206,0.514-0.402,0.755-0.622c0.11-0.101,0.264-0.158,0.328-0.309c0.046-0.069,0.093-0.139,0.178-0.169
		c0.137-0.044,0.262-0.104,0.322-0.248c0.027-0.055,0.071-0.091,0.126-0.115c0.081,0.002,0.132-0.059,0.196-0.092
		c0.055,0.068,0.034,0.133-0.027,0.178c-0.079,0.056-0.107,0.147-0.171,0.21c-0.062,0.06-0.084,0.122-0.059,0.204
		c0.017,0.053,0.026,0.12-0.027,0.145c-0.106,0.049-0.182,0.093-0.106,0.229c0.025,0.046-0.034,0.076-0.08,0.089
		c-0.121,0.032-0.171,0.115-0.173,0.235c-0.001,0.063-0.018,0.121-0.064,0.166c-0.092,0.092-0.155,0.206-0.229,0.311
		c-0.049,0.069-0.105,0.134-0.193,0.15c-0.124,0.022-0.156,0.105-0.153,0.215c0.001,0.023,0,0.045-0.001,0.068
		c-0.006,0.116-0.042,0.195-0.174,0.229c-0.185,0.049-0.208,0.141-0.097,0.294c0.094,0.129,0.098,0.135-0.042,0.227
		c-0.289,0.188-0.424,0.48-0.55,0.78c-0.011,0.028-0.008,0.067-0.028,0.085c-0.148,0.141-0.168,0.333-0.212,0.515
		c-0.016,0.067-0.043,0.134-0.095,0.179c-0.105,0.091-0.139,0.216-0.16,0.344c-0.041,0.251-0.154,0.458-0.361,0.607
		c-0.105,0.075-0.094,0.167-0.082,0.282c0.029,0.251-0.053,0.469-0.269,0.617c-0.081,0.057-0.07,0.112-0.022,0.169
		c0.038,0.046,0.092,0.078,0.139,0.117c-0.159,0.059-0.266,0.193-0.411,0.275c-0.233,0.132-0.451,0.295-0.673,0.446
		c-0.124,0.083-0.239,0.18-0.37,0.251c-0.305,0.166-0.56,0.407-0.867,0.569C16.847,29.932,16.822,29.93,16.799,29.934z"/>
	<path fill-rule="evenodd" clip-rule="evenodd" fill="#42B1C2" d="M41.564,27.051c-0.063,0.104-0.12,0.208-0.144,0.332
		c-0.027,0.146-0.119,0.249-0.266,0.283c-0.101,0.023-0.14,0.097-0.198,0.168c-0.153,0.189-0.176,0.433-0.289,0.638
		c-0.07,0.128-0.134,0.258-0.283,0.312c-0.036,0.013-0.071,0.038-0.08,0.075c-0.049,0.232-0.229,0.39-0.333,0.592
		c-0.04,0.081-0.077,0.163-0.102,0.253c-0.07,0.242-0.223,0.447-0.317,0.68c-0.037,0.09-0.145,0.153-0.219,0.229
		c-0.036,0.037-0.091,0.069-0.107,0.113c-0.103,0.271-0.276,0.506-0.386,0.771c-0.078,0.186-0.16,0.359-0.348,0.465
		c-0.146,0.082-0.131,0.225-0.119,0.363c0.015,0.156,0.012,0.156-0.157,0.202c-0.014-0.004-0.038-0.004-0.042-0.013
		c-0.115-0.264-0.328-0.477-0.403-0.762c-0.018-0.071-0.038-0.122-0.111-0.148c-0.075-0.026-0.079-0.127-0.164-0.171
		c-0.097,0.044-0.113,0.22-0.265,0.193c-0.147-0.132-0.137-0.126-0.049-0.285c0.09-0.163,0.203-0.31,0.255-0.499
		c0.047-0.172,0.152-0.332,0.255-0.481c0.138-0.2,0.233-0.423,0.365-0.626c0.102-0.155,0.109-0.346,0.171-0.516
		c0.048-0.135,0.065-0.279,0.202-0.367c0.036-0.022,0.058-0.069,0.083-0.108c0.253-0.413,0.591-0.772,0.771-1.231
		c0.014-0.035,0.032-0.072,0.06-0.095c0.27-0.233,0.446-0.53,0.595-0.849c0.051-0.108,0.142-0.196,0.181-0.314
		c0.012-0.037,0.045-0.065,0.084-0.071c0.128-0.021,0.173-0.101,0.179-0.224c0.006-0.092,0.064-0.097,0.124-0.042
		c0.132,0.125,0.259,0.257,0.39,0.384c0.078,0.071,0.137,0.167,0.249,0.194C41.311,26.66,41.457,26.84,41.564,27.051z"/>
	<path fill-rule="evenodd" clip-rule="evenodd" fill="#35C9C0" d="M39.646,34.396c0.018-0.041,0.055-0.094,0.031-0.13
		c-0.135-0.217,0.012-0.395,0.084-0.574c0.049-0.125,0.131-0.248,0.228-0.339c0.165-0.15,0.254-0.338,0.327-0.537
		c0.036-0.102,0.072-0.202,0.169-0.264c0.063-0.039,0.055-0.1,0.043-0.162c-0.023-0.117,0.029-0.199,0.141-0.225
		c0.116-0.023,0.163-0.099,0.191-0.199c0.017-0.059,0.047-0.111,0.096-0.15c0.019-0.015,0.039-0.033,0.044-0.053
		c0.045-0.244,0.228-0.421,0.323-0.641c0.028-0.069,0.041-0.143,0.038-0.223c-0.004-0.127,0.038-0.24,0.172-0.293
		c0.042-0.019,0.092-0.036,0.104-0.082c0.058-0.219,0.238-0.367,0.312-0.579c0.05-0.143,0.137-0.269,0.269-0.358
		c0.196-0.135,0.312-0.326,0.355-0.561c0.006-0.03,0.008-0.063,0.041-0.075c0.047-0.018,0.07,0.018,0.089,0.049
		c0.098,0.153,0.192,0.31,0.289,0.464c0.104,0.168,0.209,0.335,0.313,0.502c0.03,0.048,0.069,0.078,0.126,0.088l0.006,0.01
		c0.009,0.012,0.021,0.025,0.03,0.039l0.012,0.012c0.002,0.056,0.003,0.111,0.006,0.167c0.001,0.091-0.032,0.163-0.111,0.211
		c-0.099,0.06-0.147,0.149-0.166,0.26c-0.036,0.222-0.097,0.431-0.268,0.59c-0.021,0.02-0.027,0.054-0.041,0.081
		c-0.073,0.159-0.073,0.159-0.235,0.096c-0.123-0.049-0.166-0.021-0.183,0.112c0,0.006-0.001,0.016,0,0.021
		c0.048,0.203,0.016,0.361-0.223,0.403c-0.092,0.156-0.237,0.277-0.28,0.464c-0.055,0.244-0.131,0.467-0.328,0.654
		c-0.172,0.162-0.303,0.377-0.27,0.649c0.02,0.17-0.026,0.318-0.23,0.361c-0.072,0.016-0.101,0.09-0.118,0.157
		c-0.021,0.08-0.052,0.163-0.056,0.244c-0.004,0.116-0.047,0.204-0.132,0.278c-0.081,0.074-0.123,0.146-0.02,0.248
		c0.09,0.088,0.061,0.18-0.045,0.244c-0.051,0.004-0.102,0.006-0.153,0.01c-0.057-0.01-0.093-0.048-0.117-0.101
		c-0.005-0.052-0.034-0.083-0.088-0.091l-0.003-0.002c-0.007-0.054-0.038-0.082-0.089-0.089c-0.092-0.089-0.183-0.179-0.271-0.268
		c-0.055-0.104-0.135-0.183-0.235-0.239C39.748,34.531,39.685,34.477,39.646,34.396z"/>
	<path fill-rule="evenodd" clip-rule="evenodd" fill="#9C4ADD" d="M4.056,35.052c-0.045,0.101-0.147,0.136-0.232,0.173
		c-0.251,0.11-0.479,0.263-0.721,0.386c-0.332,0.169-0.655,0.352-0.987,0.514c-0.348,0.171-0.671,0.39-1.031,0.532
		c-0.071,0.028-0.137,0.068-0.215,0.069c0.091-0.121,0.241-0.149,0.363-0.216c0.651-0.347,1.313-0.672,1.962-1.024
		c0.21-0.115,0.416-0.238,0.631-0.345C3.902,35.104,3.981,35.087,4.056,35.052z"/>
	<path fill-rule="evenodd" clip-rule="evenodd" fill="#9C4ADD" d="M0.807,36.768c-0.208,0.185-0.471,0.271-0.713,0.393
		c-0.723,0.365-1.452,0.718-2.182,1.068c-0.155,0.073-0.309,0.158-0.484,0.184c0.049-0.098,0.154-0.111,0.24-0.15
		c0.91-0.422,1.809-0.868,2.705-1.321C0.509,36.872,0.64,36.771,0.807,36.768z"/>
	<path fill-rule="evenodd" clip-rule="evenodd" fill="#2AE7C0" d="M61.574,33.217c-0.286,0.118-0.579,0.204-0.881,0.281
		c-0.328,0.081-0.659,0.165-0.993,0.222c-0.443,0.072-0.883,0.212-1.344,0.165c0.019-0.036,0.043-0.061,0.087-0.063
		c0.582-0.033,1.147-0.186,1.72-0.28c0.325-0.055,0.639-0.161,0.964-0.22c0.091-0.016,0.188-0.062,0.255-0.122
		C61.468,33.119,61.514,33.17,61.574,33.217z"/>
	<path fill-rule="evenodd" clip-rule="evenodd" fill="#2AE7C0" d="M55.593,34.146c-0.025,0.043-0.064,0.063-0.113,0.063
		c-0.288,0-0.569,0.065-0.859,0.051c-0.256-0.012-0.514-0.011-0.771,0c-0.28,0.011-0.554-0.069-0.836-0.052
		c-0.048,0.002-0.086-0.021-0.121-0.053c0.047-0.033,0.102-0.025,0.154-0.023c0.804,0.017,1.608,0.018,2.412,0
		C55.504,34.13,55.548,34.14,55.593,34.146z"/>
	<path fill-rule="evenodd" clip-rule="evenodd" fill="#9C4ADD" d="M15.022,27.693c-0.019,0.07-0.067,0.115-0.124,0.158
		c-0.555,0.423-1.11,0.848-1.667,1.27c-0.09,0.068-0.175,0.149-0.296,0.16c0.017-0.033,0.027-0.078,0.054-0.096
		c0.416-0.258,0.786-0.581,1.177-0.872c0.19-0.141,0.395-0.276,0.562-0.452C14.81,27.776,14.923,27.748,15.022,27.693z"/>
	<path fill-rule="evenodd" clip-rule="evenodd" fill="#9C4ADD" d="M12.921,29.295c-0.032,0.055-0.064,0.109-0.095,0.164
		c-0.241,0.085-0.411,0.275-0.613,0.415c-0.439,0.306-0.852,0.647-1.301,0.938c-0.051,0.033-0.103,0.064-0.165,0.068
		c0.078-0.121,0.209-0.195,0.321-0.268c0.249-0.16,0.479-0.348,0.722-0.516c0.169-0.117,0.338-0.248,0.505-0.373
		C12.498,29.574,12.677,29.387,12.921,29.295z"/>
	<path fill-rule="evenodd" clip-rule="evenodd" fill="#9C4ADD" d="M10.728,30.895c-0.019,0.063-0.057,0.105-0.11,0.141
		c-0.429,0.296-0.855,0.598-1.29,0.883C9.204,32,9.08,32.096,8.921,32.114c0.143-0.156,0.333-0.251,0.506-0.362
		c0.187-0.12,0.367-0.252,0.55-0.377C10.222,31.208,10.448,31.01,10.728,30.895z"/>
	<path fill-rule="evenodd" clip-rule="evenodd" fill="#2AE7C0" d="M52.794,34.153c-0.361,0.021-0.72,0.023-1.079-0.047
		c-0.242-0.049-0.494-0.055-0.74-0.077c-0.116-0.012-0.246,0.002-0.315-0.126c0.242-0.018,0.476,0.051,0.712,0.086
		c0.389,0.055,0.778,0.07,1.168,0.1C52.629,34.095,52.723,34.073,52.794,34.153z"/>
	<path fill-rule="evenodd" clip-rule="evenodd" fill="#8D5CDB" d="M24.978,19.578c-0.037,0.097-0.116,0.157-0.193,0.218
		c-0.425,0.341-0.853,0.677-1.259,1.039c-0.084,0.075-0.17,0.153-0.291,0.165c0.028-0.086,0.099-0.127,0.17-0.173
		c0.102-0.064,0.19-0.146,0.284-0.223c0.376-0.315,0.756-0.624,1.136-0.934C24.871,19.632,24.914,19.586,24.978,19.578z"/>
	<path fill-rule="evenodd" clip-rule="evenodd" fill="#9C4ADD" d="M8.9,32.141c-0.125,0.178-0.32,0.275-0.498,0.377
		c-0.31,0.178-0.606,0.377-0.905,0.57c-0.083,0.055-0.162,0.112-0.265,0.124c0.06-0.173,0.237-0.208,0.365-0.282
		c0.362-0.215,0.709-0.454,1.059-0.687C8.736,32.189,8.812,32.157,8.9,32.141z"/>
	<path fill-rule="evenodd" clip-rule="evenodd" fill="#8D5CDB" d="M26.764,19.086c-0.03-0.007-0.062-0.009-0.088-0.021
		c-0.37-0.191-0.714-0.084-1.057,0.084c-0.165,0.081-0.292,0.211-0.44,0.314c-0.05,0.035-0.095,0.076-0.159,0.078
		c0.301-0.329,0.665-0.563,1.104-0.643C26.356,18.855,26.589,18.895,26.764,19.086z"/>
	<path fill-rule="evenodd" clip-rule="evenodd" fill="#9C4ADD" d="M16.252,26.697c-0.035,0.106-0.122,0.169-0.205,0.234
		c-0.266,0.211-0.534,0.419-0.799,0.632c-0.066,0.053-0.135,0.097-0.217,0.118c0.014-0.026,0.02-0.062,0.042-0.076
		c0.237-0.154,0.417-0.381,0.667-0.519c0.039-0.021,0.082-0.045,0.108-0.08C15.954,26.865,16.103,26.781,16.252,26.697z"/>
	<path fill-rule="evenodd" clip-rule="evenodd" fill="#9C4ADD" d="M6.204,33.824c-0.048,0.083-0.131,0.126-0.208,0.171
		c-0.312,0.185-0.625,0.365-0.939,0.547c-0.031,0.018-0.072,0.018-0.108,0.027c0.049-0.088,0.124-0.139,0.215-0.186
		c0.31-0.167,0.62-0.336,0.91-0.535C6.114,33.821,6.16,33.829,6.204,33.824z"/>
	<path fill-rule="evenodd" clip-rule="evenodd" fill="#8D5CDB" d="M21.602,22.36c-0.064,0.15-0.218,0.208-0.328,0.309
		c-0.241,0.22-0.501,0.417-0.755,0.622c-0.053,0.044-0.113,0.077-0.181,0.09c0.002-0.043,0.035-0.066,0.065-0.089
		c0.356-0.271,0.704-0.552,1.037-0.853C21.487,22.396,21.538,22.367,21.602,22.36z"/>
	<path fill-rule="evenodd" clip-rule="evenodd" fill="#9851DE" d="M27.396,22.237c-0.056-0.082-0.039-0.175-0.039-0.265
		c-0.003-0.454-0.004-0.908-0.005-1.362c0.042,0.013,0.057,0.048,0.056,0.087C27.404,21.211,27.429,21.725,27.396,22.237z"/>
	<path fill-rule="evenodd" clip-rule="evenodd" fill="#6389CC" d="M36.951,25.179c-0.029,0.083-0.113,0.099-0.179,0.131
		c-0.335,0.165-0.625,0.4-0.925,0.62c-0.068,0.049-0.127,0.107-0.219,0.106c0.109-0.172,0.299-0.249,0.449-0.37
		C36.34,25.458,36.619,25.267,36.951,25.179z"/>
	<path fill-rule="evenodd" clip-rule="evenodd" fill="#2AE7C0" d="M58.239,33.899c-0.032,0.047-0.074,0.08-0.131,0.078
		c-0.242-0.007-0.477,0.063-0.716,0.092c-0.131,0.018-0.27,0-0.407-0.002c0.036-0.057,0.086-0.078,0.152-0.078
		c0.165-0.006,0.328-0.013,0.493-0.023c0.146-0.01,0.282-0.083,0.433-0.074C58.123,33.895,58.184,33.868,58.239,33.899z"/>
	<path fill-rule="evenodd" clip-rule="evenodd" fill="#9C4ADD" d="M7.159,33.25c-0.292,0.218-0.574,0.452-0.933,0.556
		c0.034-0.107,0.147-0.129,0.222-0.169C6.688,33.512,6.881,33.302,7.159,33.25z"/>
	<path fill-rule="evenodd" clip-rule="evenodd" fill="#7C6ED5" d="M23.11,28.816c-0.002,0.016-0.007,0.033-0.01,0.049
		c-0.053-0.038-0.03-0.096-0.035-0.145c-0.017-0.161,0.019-0.33-0.082-0.479c-0.022-0.033-0.012-0.088-0.014-0.132
		c-0.002-0.216,0.003-0.432-0.026-0.646c0.019,0.057,0.059,0.116,0.056,0.17c-0.021,0.327,0.08,0.641,0.109,0.961
		C23.109,28.668,23.109,28.743,23.11,28.816z"/>
	<path fill-rule="evenodd" clip-rule="evenodd" fill="#9C4ADD" d="M-2.621,38.441c-0.113,0.137-0.29,0.156-0.437,0.226
		c-0.151,0.071-0.309,0.129-0.455,0.207c-0.079,0.045-0.16,0.043-0.244,0.042c0.313-0.146,0.627-0.293,0.939-0.442
		C-2.754,38.444-2.687,38.444-2.621,38.441z"/>
	<path fill-rule="evenodd" clip-rule="evenodd" fill="#8D5CDB" d="M17.67,25.552c-0.098,0.157-0.708,0.646-0.886,0.712
		c0.004-0.015,0.003-0.036,0.012-0.042c0.197-0.127,0.355-0.306,0.547-0.435C17.457,25.713,17.534,25.591,17.67,25.552z"/>
	<path fill-rule="evenodd" clip-rule="evenodd" fill="#8D5CDB" d="M19.818,23.814c-0.002,0.008-0.002,0.017-0.008,0.022
		c-0.262,0.26-0.527,0.516-0.862,0.684c0.008-0.05,0.048-0.077,0.083-0.103C19.301,24.227,19.522,23.971,19.818,23.814z"/>
	<path fill-rule="evenodd" clip-rule="evenodd" fill="#2AE7C0" d="M56.875,34.064c-0.117,0.077-0.254,0.095-0.386,0.098
		c-0.202,0.009-0.404-0.001-0.608-0.006c0.028-0.022,0.061-0.067,0.089-0.066C56.272,34.106,56.573,34.012,56.875,34.064z"/>
	<path fill-rule="evenodd" clip-rule="evenodd" fill="#9C4ADD" d="M-8.47,41.155c0.048,0.05,0.111,0.049,0.172,0.049
		c-0.16,0.071-0.327,0.121-0.496,0.164c-0.034,0.009-0.062,0-0.073-0.034c-0.012-0.032,0.005-0.071,0.034-0.069
		C-8.698,41.269-8.599,41.162-8.47,41.155z"/>
	<path fill-rule="evenodd" clip-rule="evenodd" fill="#9C4ADD" d="M-3.763,38.922c-0.01,0.02-0.015,0.049-0.031,0.059
		c-0.195,0.119-0.401,0.214-0.611,0.303C-4.234,39.085-4.009,38.987-3.763,38.922z"/>
	<path fill-rule="evenodd" clip-rule="evenodd" fill="#8D5CDB" d="M18.854,24.612c-0.045,0.062-0.09,0.124-0.135,0.186
		c-0.143,0.068-0.262,0.172-0.382,0.272c-0.059,0.049-0.113,0.098-0.196,0.095C18.375,24.975,18.573,24.74,18.854,24.612z"/>
	<path fill-rule="evenodd" clip-rule="evenodd" fill="#30D4C0" d="M47.776,33.174c-0.203,0.034-0.36-0.092-0.53-0.159
		c-0.122-0.049-0.264-0.079-0.338-0.212C47.2,32.918,47.506,33.005,47.776,33.174z"/>
	<path fill-rule="evenodd" clip-rule="evenodd" fill="#6389CC" d="M37.727,25.031c-0.12-0.028-0.232,0.05-0.352,0.025
		c0.004-0.005,0.008-0.015,0.014-0.016c0.318-0.082,0.638-0.151,0.969-0.077C38.149,25.014,37.93,24.945,37.727,25.031z"/>
	<path fill-rule="evenodd" clip-rule="evenodd" fill="#7C6ED5" d="M23.426,30.238c0.025,0.018,0.064,0.03,0.07,0.053
		c0.037,0.158,0.112,0.292,0.214,0.419c0.06,0.073,0.049,0.174-0.01,0.257C23.648,30.709,23.464,30.502,23.426,30.238z"/>
	<path fill-rule="evenodd" clip-rule="evenodd" fill="#9C4ADD" d="M4.828,34.605c-0.047,0.132-0.188,0.138-0.284,0.2
		c-0.147,0.096-0.293,0.205-0.477,0.23C4.304,34.862,4.549,34.703,4.828,34.605z"/>
	<path fill-rule="evenodd" clip-rule="evenodd" fill="#3BBCC0" d="M42.409,36.492c0.183,0.043,0.34,0.158,0.528,0.182
		c0.048,0.013,0.084,0.035,0.091,0.089c-0.195-0.03-0.368-0.115-0.545-0.197C42.448,36.549,42.42,36.532,42.409,36.492z"/>
	<path fill-rule="evenodd" clip-rule="evenodd" fill="#8D5CDB" d="M20.27,23.446c-0.089,0.185-0.261,0.268-0.434,0.35
		C19.945,23.636,20.085,23.514,20.27,23.446z"/>
	<path fill-rule="evenodd" clip-rule="evenodd" fill="#8D5CDB" d="M22.423,21.736c-0.064,0.034-0.115,0.095-0.196,0.092
		c0.103-0.163,0.274-0.243,0.422-0.35c-0.015,0.042-0.031,0.082-0.045,0.124c-0.001,0.015-0.002,0.029-0.002,0.042
		c-0.031,0.016-0.061,0.031-0.092,0.048C22.481,21.707,22.452,21.721,22.423,21.736z"/>
	<path fill-rule="evenodd" clip-rule="evenodd" fill="#3BBCC0" d="M44.21,30.97c-0.19-0.099-0.349-0.228-0.412-0.444
		C43.957,30.653,44.096,30.801,44.21,30.97z"/>
	<path fill-rule="evenodd" clip-rule="evenodd" fill="#7C6ED5" d="M23.138,28.918c0.06,0.036,0.061,0.096,0.057,0.154
		c-0.006,0.111,0.016,0.218,0.038,0.324c-0.083-0.047-0.095-0.126-0.095-0.212C23.138,29.096,23.138,29.007,23.138,28.918z"/>
	<path fill-rule="evenodd" clip-rule="evenodd" fill="#2AE7C0" d="M50.564,33.899c-0.138,0.047-0.273,0.098-0.364-0.076
		C50.326,33.819,50.453,33.822,50.564,33.899z"/>
	<path fill-rule="evenodd" clip-rule="evenodd" fill="#3BBCC0" d="M41.487,35.991c0.176,0.045,0.327,0.13,0.442,0.273
		C41.754,36.22,41.634,36.084,41.487,35.991z"/>
	<path fill-rule="evenodd" clip-rule="evenodd" fill="#8D5CDB" d="M16.664,26.377c-0.061,0.141-0.184,0.198-0.317,0.245
		C16.402,26.476,16.548,26.446,16.664,26.377z"/>
	<path fill-rule="evenodd" clip-rule="evenodd" fill="#9C4ADD" d="M6.156,35.633c0.118-0.079,0.264-0.084,0.389-0.146
		C6.437,35.595,6.315,35.663,6.156,35.633z"/>
	<path fill-rule="evenodd" clip-rule="evenodd" fill="#8D5CDB" d="M23.063,21.162c-0.049,0.132-0.149,0.191-0.284,0.203
		C22.846,21.258,22.943,21.195,23.063,21.162z"/>
	<path fill-rule="evenodd" clip-rule="evenodd" fill="#8D5CDB" d="M22.102,21.943c-0.06,0.144-0.185,0.204-0.322,0.248
		C21.867,22.083,21.964,21.988,22.102,21.943z"/>
	<path fill-rule="evenodd" clip-rule="evenodd" fill="#9C4ADD" d="M7.114,35.257c0.075-0.117,0.19-0.162,0.322-0.174
		C7.352,35.183,7.227,35.21,7.114,35.257z"/>
	<path fill-rule="evenodd" clip-rule="evenodd" fill="#2AE7C0" d="M50.018,37.469c0.121-0.086,0.244-0.089,0.367,0.001
		C50.262,37.496,50.139,37.476,50.018,37.469z"/>
	<path fill-rule="evenodd" clip-rule="evenodd" fill="#3BBCC0" d="M43.484,30.282c-0.003-0.056-0.004-0.111-0.006-0.167
		c0.098,0.086,0.186,0.181,0.229,0.308C43.607,30.416,43.576,30.299,43.484,30.282z"/>
	<path fill-rule="evenodd" clip-rule="evenodd" fill="#42B1C2" d="M39.822,34.577c0.101,0.057,0.181,0.135,0.235,0.239
		C39.944,34.769,39.862,34.696,39.822,34.577z"/>
	<path fill-rule="evenodd" clip-rule="evenodd" fill="#2AE7C0" d="M52.53,37.211c0.086-0.136,0.102-0.142,0.272-0.081
		C52.712,37.157,52.621,37.185,52.53,37.211z"/>
	<path fill-rule="evenodd" clip-rule="evenodd" fill="#9C4ADD" d="M16.481,30.156c0.045-0.186,0.045-0.186,0.281-0.191
		C16.663,30.021,16.566,30.08,16.481,30.156z"/>
	<path fill-rule="evenodd" clip-rule="evenodd" fill="#3BBCC0" d="M44.658,31.385c-0.14-0.017-0.227-0.095-0.261-0.23
		C44.51,31.2,44.584,31.292,44.658,31.385z"/>
	<path fill-rule="evenodd" clip-rule="evenodd" fill="#9C4ADD" d="M22.604,21.602c0.015-0.042,0.03-0.082,0.045-0.124
		c0.033-0.05,0.067-0.099,0.132-0.113C22.761,21.473,22.759,21.595,22.604,21.602z"/>
	<path fill-rule="evenodd" clip-rule="evenodd" fill="#6389CC" d="M26.917,34.162c0.089,0.021,0.207-0.036,0.255,0.095
		C27.101,34.188,26.977,34.262,26.917,34.162z"/>
	<path fill-rule="evenodd" clip-rule="evenodd" fill="#8D5CDB" d="M27.12,19.542c-0.054-0.065-0.111-0.13-0.132-0.217
		C27.089,19.363,27.133,19.436,27.12,19.542z"/>
	<path fill-rule="evenodd" clip-rule="evenodd" fill="#9C4ADD" d="M4.924,36.173c0.066-0.107,0.172-0.083,0.271-0.085
		c-0.028,0.054-0.081,0.054-0.129,0.051C5.013,36.137,4.965,36.137,4.924,36.173z"/>
	<path fill-rule="evenodd" clip-rule="evenodd" fill="#8D5CDB" d="M26.949,19.271c-0.071-0.033-0.123-0.082-0.141-0.16
		C26.884,19.139,26.951,19.174,26.949,19.271z"/>
	<path fill-rule="evenodd" clip-rule="evenodd" fill="#2AE7C0" d="M54.909,36.626c0.074-0.052,0.157-0.035,0.237-0.032
		C55.081,36.691,54.992,36.642,54.909,36.626z"/>
	<path fill-rule="evenodd" clip-rule="evenodd" fill="#9C4ADD" d="M6.888,35.315c0.06-0.075,0.145-0.045,0.221-0.053
		C7.052,35.348,6.959,35.292,6.888,35.315z"/>
	<path fill-rule="evenodd" clip-rule="evenodd" fill="#9C4ADD" d="M-7.739,40.841c-0.054,0.058-0.128,0.034-0.193,0.046
		C-7.888,40.784-7.805,40.847-7.739,40.841z"/>
	<path fill-rule="evenodd" clip-rule="evenodd" fill="#9C4ADD" d="M-6.824,40.425c-0.059,0.064-0.137,0.04-0.208,0.048
		C-6.981,40.379-6.897,40.424-6.824,40.425z"/>
	<path fill-rule="evenodd" clip-rule="evenodd" fill="#8D5CDB" d="M18.127,25.186c-0.029,0.088-0.084,0.145-0.179,0.159
		C17.984,25.265,18.036,25.205,18.127,25.186z"/>
	<path fill-rule="evenodd" clip-rule="evenodd" fill="#8D5CDB" d="M17.853,25.428c-0.029,0.073-0.086,0.102-0.16,0.104
		C17.71,25.443,17.779,25.431,17.853,25.428z"/>
	<path fill-rule="evenodd" clip-rule="evenodd" fill="#8D5CDB" d="M27.179,19.715c-0.033,0.03-0.075,0.069-0.109,0.019
		c-0.045-0.067,0.021-0.083,0.068-0.101C27.152,19.661,27.165,19.688,27.179,19.715z"/>
	<path fill-rule="evenodd" clip-rule="evenodd" fill="#2AE7C0" d="M52.898,37.13c0.049-0.078,0.125-0.089,0.207-0.076
		C53.046,37.103,52.984,37.154,52.898,37.13z"/>
	<path fill-rule="evenodd" clip-rule="evenodd" fill="#9C4ADD" d="M7.437,35.083c0.04-0.085,0.116-0.094,0.196-0.094
		C7.606,35.099,7.481,35.009,7.437,35.083z"/>
	<path fill-rule="evenodd" clip-rule="evenodd" fill="#9C4ADD" d="M6.659,35.452c0.035-0.084,0.105-0.1,0.186-0.096
		C6.783,35.389,6.721,35.421,6.659,35.452z"/>
	<path fill-rule="evenodd" clip-rule="evenodd" fill="#9C4ADD" d="M-6.229,40.102c-0.034,0.08-0.1,0.097-0.178,0.093
		C-6.356,40.148-6.293,40.126-6.229,40.102z"/>
	<path fill-rule="evenodd" clip-rule="evenodd" fill="#8D5CDB" d="M23.991,31.467c0.042,0.01,0.093,0.01,0.102,0.064
		c0.007,0.043-0.027,0.063-0.063,0.076C23.977,31.572,23.991,31.518,23.991,31.467z"/>
	<path fill-rule="evenodd" clip-rule="evenodd" fill="#3BBCC0" d="M41.932,36.269c0.077,0,0.156-0.008,0.18,0.094
		C42.063,36.312,41.971,36.339,41.932,36.269z"/>
	<path fill-rule="evenodd" clip-rule="evenodd" fill="#9C4ADD" d="M-7.961,40.927c-0.042,0.052-0.104,0.046-0.161,0.05
		C-8.09,40.893-8.016,40.939-7.961,40.927z"/>
	<path fill-rule="evenodd" clip-rule="evenodd" fill="#9C4ADD" d="M-5.677,39.893c-0.037,0.082-0.11,0.073-0.18,0.075
		C-5.823,39.88-5.724,39.949-5.677,39.893z"/>
	<path fill-rule="evenodd" clip-rule="evenodd" fill="#2AE7C0" d="M51.438,37.378c0.021-0.113,0.087-0.116,0.175-0.073
		C51.56,37.343,51.505,37.374,51.438,37.378z"/>
	<path fill-rule="evenodd" clip-rule="evenodd" fill="#6389CC" d="M27.272,34.285c0.085-0.038,0.152-0.032,0.17,0.079
		C27.398,34.308,27.331,34.307,27.272,34.285z"/>
	<path fill-rule="evenodd" clip-rule="evenodd" fill="#7C6ED5" d="M23.321,29.965c0.078,0.027,0.103,0.087,0.097,0.162
		C23.398,30.065,23.325,30.036,23.321,29.965z"/>
	<path fill-rule="evenodd" clip-rule="evenodd" fill="#9C4ADD" d="M4.6,36.348c0.029-0.083,0.102-0.079,0.17-0.083
		C4.734,36.339,4.646,36.302,4.6,36.348z"/>
	<path fill-rule="evenodd" clip-rule="evenodd" fill="#42B1C2" d="M39.229,33.987c0.084,0.006,0.132,0.053,0.141,0.137
		C39.322,34.077,39.277,34.031,39.229,33.987z"/>
	<path fill-rule="evenodd" clip-rule="evenodd" fill="#3BBCC0" d="M41.001,35.681c0.065-0.006,0.125-0.004,0.157,0.063
		C41.109,35.718,41.038,35.742,41.001,35.681z"/>
	<path fill-rule="evenodd" clip-rule="evenodd" fill="#7C6ED5" d="M23.243,29.643c0.047,0.006,0.089,0.017,0.071,0.08
		C23.284,29.702,23.241,29.692,23.243,29.643z"/>
	<path fill-rule="evenodd" clip-rule="evenodd" fill="#9C4ADD" d="M4.476,36.377c0.038-0.006,0.077-0.012,0.115-0.02
		C4.563,36.417,4.521,36.406,4.476,36.377z"/>
	<path fill-rule="evenodd" clip-rule="evenodd" fill="#9C4ADD" d="M19.537,28.112c0.028-0.059,0.082-0.068,0.14-0.069
		C19.659,28.123,19.583,28.088,19.537,28.112z"/>
	<path fill-rule="evenodd" clip-rule="evenodd" fill="#3BBCC0" d="M43.032,36.771c0.056,0,0.11,0.001,0.138,0.064
		C43.126,36.81,43.055,36.843,43.032,36.771z"/>
	<path fill-rule="evenodd" clip-rule="evenodd" fill="#9C4ADD" d="M4.78,36.249c0.027-0.062,0.08-0.071,0.141-0.071
		C4.9,36.255,4.824,36.22,4.78,36.249z"/>
	<path fill-rule="evenodd" clip-rule="evenodd" fill="#9C4ADD" d="M-5.176,39.622c-0.028,0.066-0.084,0.072-0.146,0.066
		C-5.273,39.666-5.225,39.644-5.176,39.622z"/>
	<path fill-rule="evenodd" clip-rule="evenodd" fill="#9C4ADD" d="M-5.362,39.728c-0.028,0.055-0.079,0.058-0.131,0.056
		C-5.47,39.717-5.406,39.745-5.362,39.728z"/>
	<path fill-rule="evenodd" clip-rule="evenodd" fill="#9C4ADD" d="M-6.642,40.331c-0.03,0.048-0.079,0.048-0.127,0.048
		C-6.747,40.311-6.688,40.335-6.642,40.331z"/>
	<path fill-rule="evenodd" clip-rule="evenodd" fill="#9C4ADD" d="M-7.555,40.745c-0.033,0.045-0.082,0.046-0.13,0.045
		C-7.658,40.726-7.602,40.753-7.555,40.745z"/>
	<path fill-rule="evenodd" clip-rule="evenodd" fill="#3BBCC0" d="M45.448,32.064c-0.015-0.033-0.03-0.064-0.043-0.098
		c0.061,0.027,0.137,0.029,0.167,0.105C45.529,32.07,45.489,32.067,45.448,32.064z"/>
	<path fill-rule="evenodd" clip-rule="evenodd" fill="#7C6ED5" d="M23.72,31.061c0.077,0.004,0.113,0.045,0.107,0.123
		C23.792,31.142,23.755,31.102,23.72,31.061z"/>
	<path fill-rule="evenodd" clip-rule="evenodd" fill="#9C4ADD" d="M5.785,35.83c0.033-0.06,0.088-0.065,0.146-0.061
		C5.899,35.832,5.83,35.802,5.785,35.83z"/>
	<path fill-rule="evenodd" clip-rule="evenodd" fill="#9C4ADD" d="M5.973,35.725c0.033-0.048,0.083-0.048,0.135-0.048
		C6.083,35.747,6.022,35.721,5.973,35.725z"/>
	<path fill-rule="evenodd" clip-rule="evenodd" fill="#9C4ADD" d="M5.662,35.878c0.036-0.009,0.071-0.017,0.107-0.025
		C5.743,35.905,5.706,35.906,5.662,35.878z"/>
	<path fill-rule="evenodd" clip-rule="evenodd" fill="#3BBCC0" d="M46.434,32.575c-0.049-0.001-0.096-0.009-0.122-0.058
		C46.368,32.506,46.417,32.507,46.434,32.575z"/>
	<path fill-rule="evenodd" clip-rule="evenodd" fill="#3BBCC0" d="M45.702,32.164c-0.057-0.003-0.107-0.02-0.123-0.084
		C45.637,32.086,45.685,32.103,45.702,32.164z"/>
	<path fill-rule="evenodd" clip-rule="evenodd" fill="#3BBCC0" d="M45.052,31.703c-0.056-0.002-0.096-0.023-0.11-0.082
		C44.998,31.623,45.032,31.652,45.052,31.703z"/>
	<path fill-rule="evenodd" clip-rule="evenodd" fill="#6389CC" d="M37.18,25.113c-0.021,0.036-0.048,0.049-0.085,0.026
		C37.115,25.11,37.146,25.103,37.18,25.113z"/>
	<path fill-rule="evenodd" clip-rule="evenodd" fill="#3BBCC0" d="M46.595,32.658c-0.041,0.004-0.077-0.008-0.101-0.047
		C46.544,32.596,46.582,32.602,46.595,32.658z"/>
	<path fill-rule="evenodd" clip-rule="evenodd" fill="#3BBCC0" d="M46.775,32.75c-0.042,0.002-0.075-0.013-0.098-0.049
		C46.729,32.683,46.764,32.695,46.775,32.75z"/>
	<path fill-rule="evenodd" clip-rule="evenodd" fill="#3BBCC0" d="M46.04,32.357c-0.059,0.033-0.081,0.002-0.093-0.051
		C45.989,32.302,46.018,32.324,46.04,32.357z"/>
	<path fill-rule="evenodd" clip-rule="evenodd" fill="#9C4ADD" d="M-5.596,39.846c-0.025,0.011-0.05,0.021-0.074,0.032
		C-5.665,39.822-5.632,39.828-5.596,39.846z"/>
	<path fill-rule="evenodd" clip-rule="evenodd" fill="#3BBCC0" d="M41.171,35.761c0.041,0.01,0.067,0.035,0.074,0.075
		C41.214,35.817,41.175,35.807,41.171,35.761z"/>
	<path fill-rule="evenodd" clip-rule="evenodd" fill="#2AE7C0" d="M55.637,36.455c0.024-0.029,0.056-0.044,0.093-0.051
		C55.725,36.47,55.692,36.486,55.637,36.455z"/>
	<path fill-rule="evenodd" clip-rule="evenodd" fill="#3BBCC0" d="M44.305,31.061c-0.052-0.007-0.083-0.035-0.091-0.088
		C44.262,30.982,44.298,31.006,44.305,31.061z"/>
	<path fill-rule="evenodd" clip-rule="evenodd" fill="#9C4ADD" d="M5.491,35.905l-0.002,0.001
		C5.489,35.905,5.49,35.905,5.491,35.905z"/>
	<path fill-rule="evenodd" clip-rule="evenodd" fill="#2AE7C0" d="M53.214,37.051c0.033-0.036,0.065-0.034,0.097,0.001
		C53.277,37.073,53.247,37.073,53.214,37.051z"/>
	<path fill-rule="evenodd" clip-rule="evenodd" fill="#3BBCC0" d="M44.396,31.152c-0.053-0.008-0.083-0.038-0.09-0.091
		C44.36,31.068,44.389,31.1,44.396,31.152z"/>
	<path fill-rule="evenodd" clip-rule="evenodd" fill="#42B1C2" d="M39.507,34.26c0.053,0.009,0.082,0.041,0.09,0.094
		C39.554,34.333,39.524,34.304,39.507,34.26z"/>
	<path fill-rule="evenodd" clip-rule="evenodd" fill="#2AE7C0" d="M49.789,37.459c0.034-0.041,0.065-0.039,0.092,0.011
		C49.848,37.489,49.817,37.483,49.789,37.459z"/>
	<path fill-rule="evenodd" clip-rule="evenodd" fill="#7C6ED5" d="M22.968,27.093c-0.009,0.022-0.017,0.045-0.026,0.068
		c-0.019-0.022-0.039-0.044-0.01-0.073C22.944,27.086,22.956,27.087,22.968,27.093z"/>
	<path fill-rule="evenodd" clip-rule="evenodd" fill="#6389CC" d="M26.811,34.116c0.047-0.039,0.072-0.015,0.092,0.029
		C26.873,34.136,26.841,34.126,26.811,34.116z"/>
	<path fill-rule="evenodd" clip-rule="evenodd" fill="#42B1C2" d="M40.626,35.366c0.052-0.004,0.103-0.006,0.153-0.01
		c-0.027,0.027-0.055,0.053-0.083,0.08C40.659,35.427,40.643,35.397,40.626,35.366z"/>
	<path fill-rule="evenodd" clip-rule="evenodd" fill="#42B1C2" d="M40.421,35.175c0.054,0.008,0.083,0.039,0.088,0.091
		C40.47,35.247,40.434,35.222,40.421,35.175z"/>
	<path fill-rule="evenodd" clip-rule="evenodd" fill="#3BBCC0" d="M45.407,31.971c-0.05-0.004-0.086-0.027-0.099-0.078
		C45.363,31.893,45.394,31.92,45.407,31.971z"/>
	<path fill-rule="evenodd" clip-rule="evenodd" fill="#9C4ADD" d="M7.8,34.906c0.017-0.036,0.041-0.053,0.081-0.031
		C7.854,34.886,7.827,34.896,7.8,34.906z"/>
	<path fill-rule="evenodd" clip-rule="evenodd" fill="#9C4ADD" d="M-7.144,40.517c-0.019,0.017-0.038,0.03-0.056,0.044
		C-7.196,40.526-7.185,40.503-7.144,40.517z"/>
	<path fill-rule="evenodd" clip-rule="evenodd" fill="#42B1C2" d="M40.329,35.084c0.051,0.007,0.082,0.035,0.089,0.089
		C40.378,35.154,40.34,35.134,40.329,35.084z"/>
	<path fill-rule="evenodd" clip-rule="evenodd" fill="#3BBCC0" d="M46.256,32.481c-0.032,0-0.059-0.011-0.078-0.038
		C46.217,32.433,46.245,32.44,46.256,32.481z"/>
	<path fill-rule="evenodd" clip-rule="evenodd" fill="#3BBCC0" d="M46.907,32.797c-0.032,0.006-0.063,0-0.087-0.027
		C46.855,32.758,46.891,32.75,46.907,32.797z"/>
	<path fill-rule="evenodd" clip-rule="evenodd" fill="#3BBCC0" d="M44.869,31.568c-0.021-0.016-0.041-0.031-0.062-0.049
		C44.844,31.516,44.864,31.533,44.869,31.568z"/>
	<path fill-rule="evenodd" clip-rule="evenodd" fill="#3BBCC0" d="M45.847,32.252c-0.012-0.01-0.023-0.021-0.036-0.033
		C45.836,32.215,45.849,32.227,45.847,32.252z"/>
	<path fill-rule="evenodd" clip-rule="evenodd" fill="#3BBCC0" d="M43.467,30.104c-0.01-0.014-0.021-0.027-0.03-0.039
		C43.46,30.066,43.471,30.078,43.467,30.104z"/>
	<path fill-rule="evenodd" clip-rule="evenodd" fill="#3BBCC0" d="M45.771,32.203c-0.018-0.01-0.034-0.018-0.052-0.027
		C45.745,32.169,45.764,32.176,45.771,32.203z"/>
	<path fill-rule="evenodd" clip-rule="evenodd" fill="#3BBCC0" d="M45.168,31.793c-0.014-0.01-0.024-0.02-0.037-0.029
		C45.154,31.758,45.168,31.768,45.168,31.793z"/>
	<polygon fill-rule="evenodd" clip-rule="evenodd" fill="#2AE7C0" points="54.816,36.646 54.828,36.636 54.829,36.646 	"/>
	<path fill-rule="evenodd" clip-rule="evenodd" fill="#2AE7C0" d="M50.365,34.464c-0.026,0.1-0.035,0.188-0.124,0.229
		c-0.132,0.064-0.175,0.18-0.181,0.318c-0.005,0.104-0.043,0.193-0.129,0.255c-0.086,0.063-0.176,0.033-0.18-0.069
		c-0.006-0.139-0.06-0.249-0.136-0.355c-0.083-0.117,0.027-0.199,0.058-0.293c0.025-0.08,0.115-0.066,0.179-0.047
		c0.144,0.051,0.25,0.005,0.343-0.105c0.03-0.036,0.077-0.047,0.125-0.027C50.376,34.39,50.365,34.438,50.365,34.464z"/>
	<path fill-rule="evenodd" clip-rule="evenodd" fill="#9C4ADD" d="M22.51,21.692c0.031-0.017,0.062-0.032,0.092-0.048
		C22.591,21.698,22.572,21.737,22.51,21.692z"/>
	<path fill-rule="evenodd" clip-rule="evenodd" fill="#9C4ADD" d="M22.475,22.226c0.002,0.006,0.008,0.014,0.006,0.019
		s-0.01,0.012-0.015,0.012c-0.02-0.002-0.024-0.013-0.01-0.028C22.459,22.225,22.468,22.227,22.475,22.226z"/>
	<path fill-rule="evenodd" clip-rule="evenodd" fill="#29F1C3" d="M49.297,33.705c-0.007,0.011-0.014,0.028-0.022,0.03
		c-0.023,0.006-0.045-0.004-0.043-0.03c0.002-0.011,0.022-0.022,0.032-0.022C49.274,33.683,49.285,33.696,49.297,33.705z"/>
	<path fill-rule="evenodd" clip-rule="evenodd" fill="#29F1C3" d="M49.688,33.813c-0.002-0.018,0.008-0.029,0.024-0.021
		c0.012,0.006,0.02,0.021,0.026,0.032c0.014,0.024,0.007,0.03-0.017,0.016C49.71,33.835,49.699,33.823,49.688,33.813z"/>
	<path fill-rule="evenodd" clip-rule="evenodd" fill="#9851DE" d="M23.11,28.816c-0.001-0.073-0.001-0.147-0.001-0.222
		C23.163,28.668,23.164,28.742,23.11,28.816z"/>
	<path fill-rule="evenodd" clip-rule="evenodd" fill="#9C4ADD" d="M16.983,29.141c-0.006,0.021-0.011,0.043-0.021,0.063
		c-0.014,0.028-0.035,0.051-0.07,0.041c-0.01-0.004-0.023-0.02-0.024-0.031c-0.004-0.034,0.017-0.055,0.049-0.063
		C16.938,29.146,16.961,29.144,16.983,29.141L16.983,29.141z"/>
	<path fill-rule="evenodd" clip-rule="evenodd" fill="#9C4ADD" d="M17.892,25.926c0.007,0.002,0.015,0.004,0.018,0.009
		c0.002,0.004,0.001,0.015-0.003,0.018c-0.015,0.013-0.026,0.008-0.027-0.013C17.879,25.936,17.888,25.931,17.892,25.926z"/>
</g>
</svg>
