<?xml version="1.0" encoding="utf-8"?>
<!-- Generator: Adobe Illustrator 16.0.3, SVG Export Plug-In . SVG Version: 6.00 Build 0)  -->
<!DOCTYPE svg PUBLIC "-//W3C//DTD SVG 1.1//EN" "http://www.w3.org/Graphics/SVG/1.1/DTD/svg11.dtd">
<svg version="1.1" id="Capa_1" xmlns="http://www.w3.org/2000/svg" xmlns:xlink="http://www.w3.org/1999/xlink" x="0px" y="0px"
	 width="841.89px" height="595.28px" viewBox="0 0 841.89 595.28" enable-background="new 0 0 841.89 595.28" xml:space="preserve">
<g>
	<path fill-rule="evenodd" clip-rule="evenodd" fill="#FCFCFC" d="M379.645,131.253c-2.059,1.193-2.326-0.784-2.983-1.793
		c-3.427-5.262-6.856-10.525-10.112-15.894c-1.151-1.897-2.161-2.099-4.029-1.009c-7.393,4.318-15.171,7.154-23.995,6.368
		c-3.507-0.311-6.609,1.51-9.628,3.172c-1.952,1.077-2.947,2.617-2.647,4.899c1.837,14-4.11,24.387-15.164,32.305
		c-3.225,2.312-4.343,4.612-2.295,8.561c2.146,4.148,3.439,8.742,5.053,13.162c0.742,2.037-4.583,8.745-6.62,8.204
		c-0.685-0.183-1.162-1.436-1.58-2.277c-3.689-7.427-6.4-15.223-8.916-23.112c-0.601-1.88,0.139-2.893,1.052-4.202
		c3.059-4.398,5.294-9.144,5.617-14.593c0.362-6.127-1.688-9.365-8.135-12.26c4.142,20.274,1.603,37.332-21.136,45.063
		c0.396-2.773,1.325-4.976,2.477-7.027c5.383-9.595,7.283-20.023,7.671-30.856c0.206-5.721,1.083-11.352,2.402-16.938
		c2.738-11.611,8.99-20.832,18.452-28.006c7.889-5.978,16.652-10.478,25.318-15.142c5.029-2.704,10.105-5.316,14.716-8.714
		c5.107-3.761,8.759-8.541,10.444-14.728c0.698-2.565,0.904-5.391,4.759-7.023c-5.565-1.533-9.947-2.741-15.099-4.162
		c2.677-1.881,4.729-3.547,6.985-4.86c4.481-2.605,7.686-6.293,9.978-10.87c2.58-5.152,5.743-9.8,10.345-13.465
		c3.55-2.828,4.972-7.259,7.261-11.023c1.612-2.647,2.686-2.773,4.915-0.298c1.808,2.007,1.41,6.27,5.698,6.034
		c0.305-0.019,0.029,1.525-0.23,2.359c-1.81,5.837-3.909,11.613-5.271,17.557c-2.172,9.491-1.627,19.001,0.923,28.418
		c2.855,10.538,3.59,21.036-0.275,31.593c-3.772,10.31-3.131,20.753-0.142,31.172c0.399,1.394,1.446,2.89,0.157,4.396
		C383.623,127.924,381.632,129.589,379.645,131.253z"/>
	<path fill-rule="evenodd" clip-rule="evenodd" fill="#F9F9F9" d="M232.553,406.455c-0.739,1.431-1.501,2.854-2.214,4.301
		c-15.434,31.217-30.856,62.448-46.308,93.654c-0.765,1.54-0.934,3.577-3.583,3.594c-2.677,0.018-2.809-2.051-3.57-3.582
		c-15.812-31.826-31.585-63.672-47.399-95.497c-0.542-1.088-0.722-2.473-2.362-3.362c-1.384,10.178-2.763,20.157-4.101,30.14
		c-3.091,23.077-6.206,46.149-9.183,69.244c-0.295,2.279-0.867,3.227-3.302,3.036c-3.536-0.28-8.318,1.131-10.319-0.675
		c-2.211-1.992,0.139-6.658,0.609-10.111c5.86-43.026,11.852-86.03,17.859-129.035c0.174-1.245-0.437-3.068,1.582-3.52
		c2.342-0.521,2.816,1.369,3.56,2.87c18.191,36.695,36.38,73.389,54.572,110.08c0.614,1.238,1.255,2.461,2.189,4.292
		c1.802-3.563,3.344-6.542,4.825-9.548c17.151-34.821,34.286-69.654,51.464-104.459c0.634-1.288,0.706-3.496,2.853-3.177
		c2.193,0.328,1.458,2.462,1.661,3.846c6.201,42.684,12.356,85.376,18.521,128.067c0.021,0.142,0.054,0.28,0.077,0.423
		c1.765,11.229,1.766,11.137-9.549,10.968c-2.45-0.036-3.049-0.88-3.348-3.091c-2.112-15.712-4.358-31.409-6.557-47.114
		c-2.382-17.037-4.76-34.079-7.142-51.118C233.11,406.604,232.832,406.532,232.553,406.455z"/>
	<path fill-rule="evenodd" clip-rule="evenodd" fill="#FBFBFB" d="M568.12,221.729c3.354-10.538,3.384-20.969-0.412-31.477
		c-2.843-7.884-1.266-15.879,0.765-23.633c2.817-10.773,1.909-21.177-1.752-31.539c-1.24-3.51-4.207-7.171,0.792-10.488
		c1.525-1.015,2.164-3.3,3.817-4.537c1.738,1.2,2.651,3.016,3.552,4.777c1.709,3.352,3.775,6.373,6.846,8.635
		c0.683,0.504,1.362,1.116,1.792,1.831c4.758,7.92,9.127,16.173,19.329,20.172c-4.875,1.375-8.414,2.372-12.334,3.476
		c1.886,1.843,2.53,4.031,3.136,6.316c1.635,6.137,5.695,10.505,11.019,13.641c6.256,3.691,12.666,7.124,19.032,10.634
		c11.728,6.467,22.28,14.04,26.339,27.775c0.427,1.449,1.687,1.762,2.872,2.277c10.027,4.346,20.223,7.866,31.426,6.918
		c1.175-0.102,2.549-0.271,3.641,0.65c-6.345,8.171-16.978,11.178-26.815,7.556c-4.995-1.838-9.515-4.584-13.638-7.901
		c-1.348-1.079-1.98-1.166-2.789,0.303c-0.203,0.37-0.476,0.779-0.823,0.965c-3.2,1.744-6.241,3.659-6.829,7.655
		c-0.7,4.758,0.585,9.278,3.347,12.957c2.524,3.361,2.366,6.313,0.843,9.767c-0.918,2.079-1.757,4.227-2.31,6.425
		c-0.662,2.625-1.928,3.334-4.587,2.664c-5.258-1.327-5.293-1.198-3.234-6.524c2.873-7.444,2.928-7.516-3.121-12.522
		c-6.66-5.514-10.508-12.234-10.141-21.138c0.28-6.799-2.44-10.309-9.193-10.188c-7.744,0.137-14.665-1.734-21.172-5.579
		c-1.975-1.168-2.438,0.107-3.228,1.312c-3.73,5.733-7.489,11.448-11.234,17.167C571.279,227.373,569.28,224.798,568.12,221.729z"/>
	<path fill-rule="evenodd" clip-rule="evenodd" fill="#F9F9F9" d="M352.77,399.278c0,11.086,0,20.878,0,30.674
		c-0.218,0.068-0.437,0.141-0.656,0.21c-4.662-9.981-9.363-19.949-13.927-29.976c-0.496-1.087-0.259-2.535-0.262-3.815
		c-0.019-9.005-0.062-18.015,0.039-27.017c0.017-1.563-1.04-3.766,0.874-4.614c2.131-0.949,3.595,0.732,4.965,2.322
		c8.961,10.389,17.997,20.716,26.982,31.084c20.778,23.98,41.537,47.979,62.32,71.954c0.799,0.926,1.437,2.079,3.265,2.639
		c0-1.682,0-3.175,0-4.673c0-33.024,0.063-66.05-0.084-99.076c-0.016-3.546,0.823-4.906,4.418-4.408
		c3.336,0.457,7.831-1.474,9.771,0.794c1.652,1.929,0.57,6.266,0.57,9.537c0.016,42.749,0.021,85.493-0.034,128.239
		c0,1.573,1.018,3.801-0.809,4.651c-2.163,1.012-3.532-0.858-4.892-2.422c-22.006-25.376-44.035-50.733-66.098-76.061
		C370.709,419.564,362.113,409.891,352.77,399.278z"/>
	<path fill-rule="evenodd" clip-rule="evenodd" fill="#FBFBFB" d="M479.978,188.387c-0.253,1.404-0.769,2.815-0.72,4.212
		c0.313,9.727-5.75,14.38-13.737,17.575c-0.069-0.151-0.211-0.315-0.174-0.404c3.429-8.593,0.521-16.688-1.846-24.864
		c-1.031-3.567-0.607-7.328-0.89-11.889c-2.645,5.594-1.725,10.48-0.737,15.333c1.682,8.29-1.483,15.784-8.731,20.256
		c-0.958,0.593-2.021,1.067-3.097,1.401c-0.796,0.251-1.772,0.283-2.354-0.505c-0.531-0.717,0.132-1.35,0.464-1.923
		c3.604-6.231,4.568-13.12,5.209-20.128c1.069-11.646,7.368-20.667,14.661-29.267c10.815-12.758,20.909-26.039,27.319-41.682
		c0.719-1.746,1.79-1.454,2.988-1.565c4.294-0.404,8.502,0.625,12.941,0.96c-2.964-3.795-9.215-5.041-15.324-3.004
		c-3.902,1.305-7.723,2.845-11.308,4.961c-3.985,2.352-8.958,1.637-12.273-1.483c-2.583-2.431-2.682-4.961,0.379-6.648
		c4.386-2.421,6.556-6.157,7.929-10.652c0.593-1.935,1.448-3.627,3.241-4.855c6.611-4.51,6.853-6.578,1.72-12.346
		c-0.524-0.588-1.434-0.978-1.315-2.119c1.643-0.861,3.472-0.387,4.902,0.126c19.518,7.035,35.503,17.603,39.229,40.124
		c1.229,7.447,1.562,14.686-2.858,21.443c-1.949,2.982-3.924,5.544-7.648,6.261c-1.892,0.365-3.408,1.278-2.966,3.654
		c-0.004,0,0.126-0.045,0.124-0.045c-0.892-0.069-1.244,0.293-0.943,1.176l-0.032,0.035c-0.353,0.079-0.704,0.156-1.057,0.235
		c-1.816,1.551-2.021,3.835-2.694,5.907c-0.144,0.499-0.29,0.997-0.437,1.493c-4.138,5.113-3.967,11.265-3.4,17.161
		c0.499,5.231-2.027,7.345-6.532,8.955c0.14-3.068,0.372-5.864,0.353-8.66c-0.015-1.838-0.272-3.698-0.637-5.502
		c-0.313-1.528-0.797-3.428-2.359-3.83c-1.816-0.474-1.181,1.96-2.232,2.818c-1.146,0.938-1.75,2.547-2.587,3.862
		c-1.188,0.037-1.919,0.702-2.39,1.734c-0.275,0.288-0.549,0.575-0.824,0.863l0.03-0.037c-2.609,1.753-5.77,3.026-6.018,6.851
		l-0.035,0.033c-1.114-0.725-1.493,0.367-2.118,0.853c-0.144,0.434-0.293,0.866-0.442,1.298
		C479.998,186.961,479.665,187.536,479.978,188.387z"/>
	<path fill-rule="evenodd" clip-rule="evenodd" fill="#FAFAFA" d="M557.15,434.496c-4.23-9.027-8.494-18.042-12.651-27.106
		c-0.511-1.113-0.576-2.503-0.578-3.768c-0.037-11.862,0.077-23.734-0.095-35.598c-0.04-2.912,0.9-3.492,3.612-3.47
		c15.013,0.131,30.038-0.281,45.036,0.166c17.845,0.53,34.922,4.086,48.883,16.369c17.697,15.577,24.041,35.806,23.688,58.717
		c-0.302,19.511-6.536,36.624-20.346,50.697c-10.436,10.632-23.615,15.063-38.017,16.583c-4.253,0.452-8.537,0.596-12.81,0.849
		c-1.286,0.074-2.505,0.139-3.185-1.444c-1.731-4.023-3.603-7.984-5.536-12.237c8.354-0.6,16.347-0.733,24.161-2.391
		c21.666-4.597,35.845-19.076,39.544-40.839c2.624-15.439,1.358-30.479-6.443-44.458c-9.002-16.134-23.421-23.929-41.208-26.432
		c-13.063-1.838-26.21-1.577-39.347-1.785c-3.399-0.055-3.934,1.078-3.903,4.138c0.152,16.443,0.077,32.886,0.077,49.33
		c0,0.808,0,1.622,0,2.435C557.741,434.333,557.448,434.414,557.15,434.496z"/>
	<path fill-rule="evenodd" clip-rule="evenodd" fill="#F9F9F9" d="M359.888,507.942c-4.636,0-9.151-0.058-13.662,0.025
		c-2.228,0.042-2.302-1.791-2.922-3.086c-6.376-13.373-12.796-26.729-18.989-40.189c-1.365-2.964-2.861-4.194-6.333-4.114
		c-11.854,0.275-23.719,0.031-35.579,0.158c-2.705,0.027-4.25-0.397-4.384-3.548c-0.142-3.381-2.745-7.63-0.948-9.825
		c1.803-2.205,6.423-0.628,9.799-0.667c8.574-0.105,17.147-0.065,25.721-0.013c2.188,0.01,3.256-0.174,1.996-2.825
		c-7.647-16.085-15.158-32.236-23.067-49.124c-5.958,12.562-11.626,24.511-17.815,37.564c-1.492-8.715-2.737-16.182-4.064-23.639
		c-0.274-1.536,0.252-2.786,0.863-4.081c5.896-12.507,11.808-25.009,17.656-37.534c0.722-1.543,1.398-2.589,3.405-2.501
		c1.725,0.08,2.436,0.816,3.114,2.278c21.64,46.509,43.327,92.996,64.993,139.495C359.834,506.672,359.785,507.127,359.888,507.942z
		"/>
	<path fill-rule="evenodd" clip-rule="evenodd" fill="#F9F9F9" d="M475.696,430.054c0-10.503-0.02-21.004,0.032-31.509
		c0.003-0.802,0.399-1.641,0.756-2.399c4.535-9.685,9.125-19.349,13.629-29.051c0.715-1.531,1.377-2.524,3.374-2.565
		c2.066-0.044,2.654,1.111,3.336,2.577c21.585,46.384,43.186,92.759,64.777,139.14c0.169,0.366,0.274,0.767,0.605,1.698
		c-4.749,0-9.233-0.102-13.713,0.04c-2.448,0.077-2.64-1.858-3.319-3.278c-6.321-13.239-12.721-26.441-18.751-39.813
		c-1.556-3.45-3.446-4.368-7.058-4.304c-13.145,0.23-26.295,0.002-39.442,0.161c-2.961,0.037-3.842-0.717-3.835-3.754
		c0.029-10.336-0.099-10.336,10.413-10.336c10.236,0,20.466,0,31.368,0c-8.208-17.481-16.112-34.312-24.387-51.93
		c-5.819,12.294-11.299,23.877-16.779,35.461C476.368,430.15,476.028,430.103,475.696,430.054z"/>
	<path fill-rule="evenodd" clip-rule="evenodd" fill="#F9F9F9" d="M769.805,507.933c-4.495,0-8.885-0.077-13.276,0.035
		c-2.228,0.052-2.376-1.719-3.001-3.031c-6.47-13.515-12.983-27.018-19.279-40.613c-1.246-2.687-2.585-3.78-5.687-3.731
		c-13.013,0.209-26.026-0.002-39.04,0.159c-2.938,0.037-3.537-0.881-2.648-3.406c0.144-0.403,0.218-0.828,0.347-1.237
		c0.968-3.044-0.412-7.502,2.272-9.021c2.511-1.42,6.402-0.412,9.689-0.42c7.863-0.018,15.731,0.015,23.595-0.02
		c1.455-0.008,3.598,0.511,2.243-2.356c-7.709-16.355-15.39-32.726-23.427-49.839c-4.6,9.679-8.866,18.654-13.53,28.479
		c-1.577-7.231-3.093-13.617-5.704-19.654c-0.616-1.417,0.15-2.469,0.691-3.614c5.12-10.842,10.258-21.674,15.333-32.539
		c0.709-1.519,1.31-2.657,3.354-2.578c1.606,0.063,2.236,0.826,2.807,2.059c21.691,46.59,43.396,93.168,65.083,139.763
		C769.79,506.718,769.73,507.176,769.805,507.933z"/>
	<path fill-rule="evenodd" clip-rule="evenodd" fill="#2CAAA5" d="M661.839,276.393c0.579,0.022,1.165,0.044,1.75,0.067
		c0.467,0.657,0.993,0.736,1.588,0.163c11.253,0.712,22.524,0.978,33.771,0.425c18.738-0.918,37.343-3.163,55.502-7.993
		c5.655-1.506,11.505-1.835,17.131-3.74c-5.085,4.81-10.88,8.377-16.69,11.994c-22.826,14.206-47.949,22.556-73.855,28.693
		c-9.646,2.289-19.434,4.227-29.473,4.674c-6.58,0.29-13.098,1.882-19.758,1.45c0.166-2.152,0.863-4.048,2.106-5.887
		c3.8-5.62,7.618-11.247,11.054-17.094c1.389-2.371,4.036-3.706,4.808-6.399c1.037-3.603,3.721-5.502,6.836-7.026
		c1.169,0.085,2.427-0.421,3.463,0.531c-0.689,0.576-0.788,1.23,0.139,1.521C661.277,278.102,661.687,277.323,661.839,276.393z"/>
	<path fill-rule="evenodd" clip-rule="evenodd" fill="#964FA4" d="M371.497,139.772c3.223-2.649,6.447-5.301,9.672-7.95
		c1.8-1.556,3.598-3.111,5.398-4.664l-0.059-0.01c0.368-0.322,0.738-0.643,1.106-0.965c4.046-3.471,8.629-5.205,14.026-4.411
		c2.299,0.34,4.531,0.707,5.187,3.47c-1.263-0.091-2.107,0.231-2.544,1.645c-1.906,6.194-6.44,10.925-9.38,16.543
		c-1.249,2.381-4.365,2.893-5.284,5.433c-3.361,9.291-9.776,16.826-14.496,25.34c-6.225,11.228-11.587,22.546-9.318,35.917
		c-1.191-4.721-0.594-9.545-0.853-14.323c-0.05-0.886,0.59-2.128-0.683-2.6c-0.973-0.362-1.4,0.744-2.068,1.195
		c-11.962,8.065-23.92,16.137-35.879,24.209c-0.007-1.288,0.057-2.521,0.65-3.744c2.876-5.931,5.595-11.939,8.549-17.831
		c1.15-2.292,1.455-4.817,2.716-7.131c1.977-3.625,5.47-6.631,6.455-10.345c2.052-7.732,8.486-12.463,11.71-19.351
		c1.949-4.165,4.231-8.229,6.018-12.507l0.138-0.142c0.232-0.213,0.466-0.426,0.697-0.64c-0.054-0.151-0.098-0.305-0.125-0.461
		C365.918,144.222,368.709,141.997,371.497,139.772z"/>
	<path fill-rule="evenodd" clip-rule="evenodd" fill="#8D59A8" d="M365.805,210.12c-2.269-13.371,3.093-24.689,9.318-35.917
		c4.72-8.514,11.135-16.049,14.496-25.34c0.919-2.54,4.035-3.051,5.284-5.433c2.94-5.619,7.474-10.349,9.38-16.543
		c0.437-1.414,1.281-1.736,2.544-1.645c2.903,2.558,2.881,6.291,3.499,9.603c1.672,9.015,0.893,18.161,0.801,27.26
		c-0.486,0.256-1.154,0.385-1.431,0.784c-4.629,6.591-7.649,14.053-10.962,21.293c-3.09,6.76-7.041,13.036-9.92,19.969
		c-3.075,7.4-7.115,14.619-11.253,21.614c-2.504,4.229-2.505,9.645-6.465,13.105C367.697,229.588,365.927,220.008,365.805,210.12z"
		/>
	<path fill-rule="evenodd" clip-rule="evenodd" fill="#8464AE" d="M371.096,238.871c3.959-3.46,3.96-8.875,6.465-13.105
		c4.138-6.996,8.179-14.214,11.253-21.614c2.88-6.933,6.831-13.209,9.92-19.969c3.313-7.241,6.333-14.703,10.962-21.293
		c0.277-0.399,0.945-0.528,1.431-0.784c0.047,4.284,0.26,8.573,0.114,12.847c-0.372,10.93,1.153,21.75,1.609,32.632
		c-0.958,0.087-1.441,0.708-1.895,1.496c-5.837,10.206-9.315,21.458-14.258,32.063c-3.569,7.658-6.942,15.412-10.402,23.122
		C379.114,257.066,374.264,248.468,371.096,238.871z"/>
	<path fill-rule="evenodd" clip-rule="evenodd" fill="#37B1B8" d="M568.12,221.729c1.16,3.069,3.159,5.644,4.934,8.348
		c0.015,2.354,2.404,3.599,2.708,5.816c-1.778-1.981-3.378-1.664-4.813,0.397c-0.895,1.282-1.917,2.51-2.606,3.896
		c-7.313,14.78-16.936,28.362-22.859,43.863c-0.414,1.082-0.986,2.071-2.16,2.521c-7.456-6.452-14.154-13.547-18.883-22.306
		c5.204-6.849,8.543-14.782,12.904-22.12c6.755-11.357,11.833-23.825,21.718-33.131c3.049,2.741,4.234,6.747,6.698,9.9
		C566.518,219.884,566.916,221.134,568.12,221.729z"/>
	<path fill-rule="evenodd" clip-rule="evenodd" fill="#9C48A0" d="M362.42,147.693c-1.786,4.279-4.068,8.342-6.018,12.507
		c-3.224,6.888-9.659,11.619-11.71,19.351c-0.985,3.713-4.478,6.72-6.455,10.345c-1.261,2.314-1.566,4.839-2.716,7.131
		c-2.954,5.892-5.673,11.9-8.549,17.831c-0.593,1.223-0.657,2.456-0.65,3.744c-11.237,7.754-22.555,15.38-34.326,22.313
		c0.039-5.053,3.689-9.02,4.206-13.917c0.402-3.786,3.834-6.321,4.241-9.933c0.321-2.835,1.222-5.234,2.823-7.444
		c1.23-1.705,1.739-3.538,1.623-5.614c-0.072-1.27-0.317-2.813,0.856-3.599c3.229-2.158,2.321-5.09,1.783-8.005l-0.006-0.218
		l0.219-0.013c0.185-0.119,0.344-0.27,0.478-0.446c11.116-9.064,22.241-18.121,33.338-27.21c1.023-0.838,2.552-1.702,0.916-3.344
		c0.469-0.497,0.937-0.998,1.406-1.493c0.161,0.791-0.972,2.195,0.67,2.197c0.58,0.003,2.605-0.702,1.365-2.46l-0.238-0.015
		c2.495,0.621,3.682-1.344,5.281-2.594C354.805,153.803,358.072,150.064,362.42,147.693z"/>
	<path fill-rule="evenodd" clip-rule="evenodd" fill="#31ADAA" d="M598.339,311.271c-10.353-1.605-20.574-3.664-30.075-8.34
		c-0.169-1.915-1.251-3.659-0.163-5.787c5.357-10.508,9.892-21.493,17.902-30.425c1.029-1.148,1.342-2.52,1.759-3.848
		c1.31-4.157,4.507-6.69,9.27-7.127c0.285-0.01,0.447,0.129,0.479,0.412c0.158,0.173,0.353,0.3,0.571,0.385l0.238,0.198
		c0.461,0.238,0.918,0.471,1.379,0.709l0.268,0.055c0,0,0.079,0.265,0.079,0.263c0.179,0.231,0.407,0.392,0.685,0.481
		c0.94,0.484,1.883,0.962,2.823,1.446c0.145,0.174,0.332,0.278,0.563,0.3l0.187,0.176c0.511,0.236,1.021,0.471,1.537,0.705
		l0.176,0.174c0.511,0.228,1.02,0.459,1.528,0.691l0.188,0.179c0.509,0.226,1.02,0.449,1.53,0.672l0.189,0.179
		c0.525,0.224,1.052,0.442,1.575,0.662l0.146,0.129c0.535,0.23,1.069,0.461,1.603,0.695c4.579,1.716,9.158,3.433,13.737,5.147
		c-3.721-0.858-5.795,1.3-7.501,4.113c-1.107,1.815-2.215,3.626-3.302,5.457C609.461,289.495,601.41,299.043,598.339,311.271z"/>
	<path fill-rule="evenodd" clip-rule="evenodd" fill="#A83999" d="M185.618,278.881c14.806-9.387,29.997-18.171,44.424-28.155
		c10.147-7.025,20.412-13.879,30.057-21.604c0.514-0.412,1.259-0.541,1.896-0.799c-0.254,2.042-1.509,3.213-3.283,4.118
		c-1.999,1.02-2.85,2.677-0.808,4.311c2.041,1.635,0.905,2.93,0.042,4.381c-2.651,4.48-5.586,8.851-4.587,14.504
		c0.204,1.144,0.029,2.525-1.037,3.082c-3.142,1.642-1.627,3.611-0.609,5.606c-21.813,12.495-44.54,23.092-67.787,32.612
		c-1.63-3.765-1.078-8.515,0.793-10.793C187.103,283.249,186.463,281.433,185.618,278.881z"/>
	<path fill-rule="evenodd" clip-rule="evenodd" fill="#2EADB0" d="M597.031,255.744c-4.763,0.437-7.96,2.97-9.27,7.127
		c-0.417,1.328-0.729,2.699-1.759,3.848c-8.011,8.933-12.545,19.917-17.902,30.425c-1.088,2.128-0.006,3.872,0.163,5.787
		c-9.372-3.841-17.873-9.007-24.94-16.36c1.174-0.449,1.746-1.439,2.16-2.521c5.924-15.501,15.547-29.083,22.859-43.863
		c0.689-1.386,1.712-2.614,2.606-3.896c1.435-2.062,3.034-2.379,4.813-0.397c0,0,0.216,0.251,0.216,0.249
		c0.114,0.258,0.283,0.471,0.515,0.638l0.247,0.067l0.055,0.248c0.13,1.042,0.723,1.759,1.603,2.273
		c1.966,1.218,3.005,3.683,5.55,4.112c0.247,0.256,0.5,0.514,0.754,0.77c1.505,4.52,6.014,6.035,9.06,9.012
		C594.731,254.208,595.938,254.926,597.031,255.744z"/>
	<path fill-rule="evenodd" clip-rule="evenodd" fill="#509CC0" d="M482.532,267.755c-6.253,3.58-12.8,6.457-19.77,8.335
		c0.642-4.81,2.661-9.164,4.614-13.517c2.138-4.775,4.524-9.441,6.764-14.172c5.344-11.271,10.406-22.675,16.657-33.5
		c5.033-8.719,9.997-17.491,13.197-27.106c0.388-0.241,0.773-0.481,1.158-0.722c1.53-0.069,2.875-0.566,3.956-1.687
		c7.24-3.289,14.617-3.222,22.091-0.923c-2.491-0.511-4.371,0.789-5.397,2.669c-3.068,5.613-7.335,10.521-10.108,16.208
		c-3.672,7.529-7.487,15.008-12.194,21.842c-5.448,7.898-10.221,16.082-13.862,24.891
		C487.212,255.94,483.078,261.135,482.532,267.755z"/>
	<path fill-rule="evenodd" clip-rule="evenodd" fill="#A2419D" d="M251.715,264.325c-1.019-1.995-2.533-3.964,0.609-5.606
		c1.065-0.556,1.24-1.938,1.037-3.082c-1-5.653,1.936-10.024,4.587-14.504c0.863-1.451,1.999-2.746-0.042-4.381
		c-2.042-1.634-1.191-3.292,0.808-4.311c1.773-0.905,3.028-2.076,3.283-4.118c5.972-5.768,13.088-10.086,19.442-15.38
		c8.19-6.827,16.615-13.368,24.952-20.019c0.317-0.25,0.755-0.35,1.138-0.521c0.539,2.915,1.446,5.847-1.783,8.005
		c-1.173,0.786-0.929,2.329-0.856,3.599c0.117,2.076-0.392,3.909-1.623,5.614c-1.602,2.21-2.502,4.609-2.823,7.444
		c-0.407,3.612-3.838,6.147-4.241,9.933c-0.517,4.897-4.167,8.863-4.206,13.917C278.828,249.16,265.682,257.448,251.715,264.325z"/>
	<path fill-rule="evenodd" clip-rule="evenodd" fill="#48A4BF" d="M482.532,267.755c0.546-6.621,4.68-11.815,7.105-17.682
		c3.642-8.809,8.414-16.992,13.862-24.891c4.707-6.834,8.522-14.313,12.194-21.842c2.773-5.688,7.04-10.595,10.108-16.208
		c1.026-1.88,2.906-3.18,5.397-2.669c0,0,0.191,0.082,0.191,0.08c0.615,0.841,1.543,0.712,2.408,0.787
		c4.463,1.148,8.126,3.639,11.384,6.809c-6.415,4.47-9.466,11.626-13.438,17.851c-4.274,6.685-9.142,12.989-12.051,20.795
		c-2.002,5.373-4.622,11.245-8.655,15.951c-1.418,1.654-1.389,3.669-0.183,5.566C501.724,258.019,492.555,263.67,482.532,267.755z"
		/>
	<path fill-rule="evenodd" clip-rule="evenodd" fill="#2EABA5" d="M598.339,311.271c3.071-12.228,11.122-21.775,17.372-32.298
		c1.087-1.831,2.194-3.642,3.302-5.457c1.706-2.813,3.78-4.972,7.501-4.113c0.367,0.134,0.739,0.265,1.106,0.399
		c0.506,0.151,1.013,0.303,1.519,0.451c0.337,0.092,0.674,0.184,1.012,0.275c0.67,0.712,1.561,0.558,2.401,0.591
		c0.352,0.111,0.702,0.221,1.052,0.33c0.799,0.176,1.592,0.35,2.391,0.526c0.344,0.099,0.686,0.201,1.03,0.3
		c0.691,0.699,1.583,0.528,2.429,0.548c5.717,0.967,11.438,1.93,17.155,2.897c-3.115,1.523-5.799,3.423-6.836,7.026
		c-0.771,2.694-3.419,4.028-4.808,6.399c-3.436,5.847-7.254,11.474-11.054,17.094c-1.243,1.839-1.94,3.734-2.106,5.887
		C620.638,312.335,609.467,312.717,598.339,311.271z"/>
	<path fill-rule="evenodd" clip-rule="evenodd" fill="#40AFBF" d="M510.857,252.301c-1.206-1.897-1.235-3.912,0.183-5.566
		c4.033-4.706,6.653-10.578,8.655-15.951c2.909-7.806,7.776-14.11,12.051-20.795c3.972-6.224,7.022-13.381,13.438-17.851
		c6.138,4.383,10.248,10.434,13.876,16.876c-9.882,9.307-14.96,21.774-21.715,33.131c-4.361,7.337-7.7,15.271-12.904,22.12
		c-3.036-2.788-4.961-6.472-6.529-10.054C516.041,249.927,514.148,249.498,510.857,252.301z"/>
	<path fill-rule="evenodd" clip-rule="evenodd" fill="#6C7CB9" d="M427.513,282.088c-6.768-0.843-13.599-1.397-19.977-4.13
		c-1.015-0.437-2.01-0.913-3.015-1.367c1.52-0.511,1.435-1.916,1.804-3.113c3.483-11.312,7.147-22.529,12.482-33.188
		c2.709-5.408,4.761-10.761,12.168-10.198c7.536-1.563,14.491-4.763,21.536-7.7c-0.139,1.965,0.167,3.964-0.917,5.824
		c-6.658,11.433-12.171,23.439-17.256,35.617C431.844,269.812,428.608,275.569,427.513,282.088z"/>
	<path fill-rule="evenodd" clip-rule="evenodd" fill="#AB3295" d="M185.618,278.881c0.845,2.552,1.485,4.368-0.897,7.263
		c-1.871,2.278-2.423,7.028-0.793,10.793c-47.109,20.272-95.616,36.813-143.667,54.575c-0.127-0.328-0.255-0.649-0.384-0.978
		c14.002-6.351,28.219-12.279,41.965-19.148c31.174-15.576,63.239-29.403,93.333-47.125
		C178.542,282.279,182.13,280.667,185.618,278.881z"/>
	<path fill-rule="evenodd" clip-rule="evenodd" fill="#6287BE" d="M427.513,282.088c1.096-6.519,4.331-12.277,6.826-18.255
		c5.085-12.178,10.598-24.184,17.256-35.617c1.084-1.86,0.778-3.859,0.917-5.824c8.673-5.462,17.34-10.925,26.012-16.387
		c1.25,1.779,0.125,3.282-0.644,4.757c-1.048,2.02-2.63,3.84-3.303,5.961c-3.281,10.322-10.068,19.001-13.085,29.567
		c-2.196,7.688-6.837,14.658-10.17,22.045c-1.745,3.854-3.984,7.6-4.009,12.05C440.731,281.181,434.218,282.748,427.513,282.088z"/>
	<path fill-rule="evenodd" clip-rule="evenodd" fill="#5891BF" d="M447.313,280.386c0.024-4.45,2.264-8.196,4.009-12.05
		c3.333-7.387,7.974-14.358,10.17-22.045c3.017-10.565,9.804-19.245,13.085-29.567c0.673-2.121,2.255-3.942,3.303-5.961
		c0.769-1.475,1.894-2.979,0.644-4.757c8.549-5.988,16.519-12.79,25.472-18.21c-3.2,9.615-8.164,18.387-13.197,27.106
		c-6.251,10.826-11.313,22.229-16.657,33.5c-2.239,4.731-4.626,9.397-6.764,14.172c-1.953,4.354-3.973,8.707-4.614,13.517
		C457.786,278.149,452.526,279.188,447.313,280.386z"/>
	<path fill-rule="evenodd" clip-rule="evenodd" fill="#796DB2" d="M430.976,230.092c-7.407-0.563-9.459,4.79-12.168,10.198
		c-5.335,10.659-9,21.877-12.482,33.188c-0.369,1.198-0.284,2.602-1.804,3.113c-7.116-2.57-12.952-7.033-18.225-12.326
		c3.46-7.71,6.833-15.464,10.402-23.122c4.943-10.604,8.42-21.857,14.258-32.063c0.454-0.789,0.938-1.409,1.895-1.496
		c1.156,4.046,2.106,8.162,3.508,12.121C419.312,228.053,422.43,230.154,430.976,230.092z"/>
	<path fill-rule="evenodd" clip-rule="evenodd" fill="#F2F2F2" d="M154.884,574.271c0-5.424,0.038-10.851-0.023-16.276
		c-0.019-1.647,0.192-2.781,2.245-2.693c5.126,0.223,10.286-0.432,15.385,0.476c5.661,1.002,8.596,3.809,9.704,9.372
		c1.155,5.807,1.091,11.658-0.046,17.452c-1.275,6.491-5.013,9.724-11.919,10.145c-4.268,0.269-8.567,0-12.846,0.169
		c-2.216,0.092-2.566-0.9-2.53-2.796C154.947,584.84,154.884,579.556,154.884,574.271z M162.453,573.667
		c0,3.282-0.03,6.561,0.02,9.843c0.012,0.913-0.352,1.968,0.884,2.583c2.582,1.276,9.309-0.353,10.377-2.975
		c2.387-5.88,2.499-12.107,0.3-17.939c-1.658-4.401-6.291-3.335-9.817-3.069c-3.491,0.263-1.343,3.384-1.672,5.154
		C162.159,569.333,162.454,571.525,162.453,573.667z"/>
	<path fill-rule="evenodd" clip-rule="evenodd" fill="#F2F2F2" d="M589.547,555.318c6.93-0.004,6.924,0,8.378,6.565
		c2.028,9.168,4.112,18.33,6.045,27.521c0.224,1.062,1.632,3.272-0.62,3.272c-2.129,0-5.234,2.083-6.544-1.715
		c-0.566-1.645,0.187-4.418-2.004-4.7c-3.637-0.472-7.412-0.333-11.071,0.066c-1.486,0.162-1.195,2.354-1.538,3.676
		c-0.608,2.34-5.49,4.126-7.404,2.668c-0.918-0.7-0.343-1.568-0.185-2.298c2.371-10.845,4.832-21.671,7.15-32.53
		c0.401-1.874,1.113-2.734,3.091-2.554C586.396,555.432,587.978,555.318,589.547,555.318z M589.652,579.264
		c0.892-0.982,4.834,2.47,4.227-2.116c-0.594-4.492-1.799-8.911-2.773-13.354c-0.203-0.925-0.261-1.999-1.699-2.021
		c-1.484-0.022-1.432,1.018-1.636,1.979c-0.783,3.761-1.279,7.613-2.473,11.236C583.956,579.08,585.327,580.142,589.652,579.264z"/>
	<path fill-rule="evenodd" clip-rule="evenodd" fill="#F7F7F7" d="M349.699,582.354c0,10.516,0,10.516-10.604,10.516
		c-1.717,0-3.432,0.014-5.148-0.006c-4.894-0.054-8.217-2.105-9.807-6.757c-2.664-7.795-2.658-15.747-0.186-23.593
		c1.365-4.334,4.635-6.768,9.115-7.44c4.874-0.735,9.672-0.044,14.495,0.715c3.077,0.479,1.828,2.617,2.01,4.234
		c0.259,2.289-1.245,1.977-2.739,1.91c-3.422-0.151-6.849-0.229-10.272-0.24c-3.363-0.011-5.321,1.793-5.909,5.048
		c-0.896,4.964-1.11,9.96-0.038,14.913c0.934,4.307,7.229,7.1,11.004,4.977c1.647-0.931,0.786-2.577,0.816-3.878
		c0.028-1.21,0.887-2.952-1.461-3.32c-3.608-0.571-1.502-3.414-1.744-5.165c-0.278-2.01,1.672-1.427,2.818-1.483
		c7.65-0.365,7.65-0.35,7.65,7.422C349.699,580.923,349.699,581.637,349.699,582.354z"/>
	<path fill-rule="evenodd" clip-rule="evenodd" fill="#F9F9F9" d="M343.878,159.679c-0.469,0.496-0.937,0.997-1.406,1.493
		c-0.457,0.337-1.019,0.593-1.354,1.024c-3.553,4.542-5.838,2.458-8.219-1.294c-1.75-2.762-3.817-5.383-6.096-7.723
		c-2.137-2.19-2.598-4.636-1.126-6.899c3.12-4.785,2.525-10.128,2.916-15.318c0.511-6.74,1.6-8.104,8.188-9.183
		c8.068-1.32,8.701-0.729,7.481,7.501c-0.907,6.137-4.242,11.156-7.892,15.928c-1.439,1.88-1.502,2.942,0.491,4.401
		c2.642,1.937,5.007,4.249,7.551,6.328c1.149,0.942,2.26,1.784,1.263,3.461c0,0.002,0.238,0.017,0.238,0.017
		C345.1,158.456,344.506,159.198,343.878,159.679z"/>
	<path fill-rule="evenodd" clip-rule="evenodd" fill="#F2F2F2" d="M497.809,577.416c0-3.285,0.025-6.575-0.008-9.861
		c-0.057-6.145,0.725-5.626-5.515-5.323c-3.784,0.178-4.643-1.167-4.33-4.582c0.178-1.938,0.9-2.368,2.637-2.356
		c7.29,0.06,14.578,0.124,21.866-0.025c3.123-0.063,2.44,1.946,2.546,3.717c0.114,1.91-0.04,3.125-2.604,3.223
		c-7.073,0.271-7.068,0.411-7.066,7.605c0,6.717-0.188,13.444,0.075,20.149c0.139,3.661-2.134,2.789-4.141,2.933
		c-2.255,0.161-3.758,0.002-3.534-3.047C498.036,585.725,497.809,581.563,497.809,577.416z"/>
	<path fill-rule="evenodd" clip-rule="evenodd" fill="#F7F7F7" d="M604.996,218.777c8.559-0.015,10.926,2.23,11.219,10.454
		c0.128,3.545,0.046,7.07,2.103,10.29c1.226,1.913,1.05,3.892-0.645,5.847c-2.986,3.443-5.765,7.08-8.464,10.759
		c-1.226,1.667-2.356,2.294-4.157,0.98c-0.568-0.415-1.246-0.675-1.876-1.005c-6.222-3.245-6.208-3.235-0.927-7.725
		c2.713-2.307,6.58-4.2,7.729-7.137c1.181-3.016-3.185-5.448-4.569-8.486c-1.674-3.691-2.937-7.409-2.645-11.52
		C602.876,219.683,603.06,218.222,604.996,218.777z"/>
	<path fill-rule="evenodd" clip-rule="evenodd" fill="#F2F2F2" d="M669.057,574.017c-0.002-5.286,0.174-10.579-0.064-15.852
		c-0.151-3.291,1.833-2.84,3.84-2.864c2.037-0.018,3.843-0.36,3.75,2.893c-0.232,8.134,0.055,16.282-0.146,24.416
		c-0.067,2.873,0.816,3.806,3.595,3.503c1.977-0.211,4.006,0.095,5.993-0.071c2.674-0.217,4.041,0.203,4.105,3.54
		c0.069,3.675-1.865,3.353-4.247,3.315c-4.569-0.074-9.145-0.144-13.711,0.03c-2.373,0.089-3.254-0.548-3.17-3.059
		C669.186,584.591,669.062,579.301,669.057,574.017z"/>
	<path fill-rule="evenodd" clip-rule="evenodd" fill="#F9F9F9" d="M423.652,574.427c0,5.269-0.179,10.545,0.064,15.802
		c0.164,3.5-2.124,2.552-3.919,2.619c-1.792,0.066-3.592,0.545-3.543-2.548c0.169-10.82,0.149-21.644,0.005-32.461
		c-0.04-3.161,1.959-2.507,3.681-2.477c1.677,0.027,3.845-0.804,3.756,2.406C423.541,563.315,423.652,568.872,423.652,574.427z"/>
	<path fill-rule="evenodd" clip-rule="evenodd" fill="#F7F7F7" d="M362.482,145.344c-0.816-0.107-1.61-0.05-1.847-1.238
		c-1.402-7.085-2.681-14.201-4.433-21.199c-0.717-2.863,0.255-3.957,2.508-5.2c6.461-3.562,6.303-3.606,8.943,3.538
		c2.049,5.544,1.497,11.165,1.08,16.821C368.518,142.097,363.963,142.398,362.482,145.344z"/>
	<path fill-rule="evenodd" clip-rule="evenodd" fill="#FBFBFB" d="M256.187,574.438c-0.003,5.267-0.18,10.542,0.065,15.799
		c0.142,3.027-1.607,2.741-3.467,2.61c-1.748-0.122-4.015,0.96-3.958-2.568c0.178-10.82,0.146-21.643,0.013-32.461
		c-0.039-3.165,1.993-2.461,3.705-2.456c1.687,0.005,3.803-0.796,3.697,2.419C256.058,563.325,256.19,568.887,256.187,574.438z"/>
	<path fill-rule="evenodd" clip-rule="evenodd" fill="#F7F7F7" d="M584.7,244.249c-0.254-0.256-0.507-0.514-0.754-0.77
		c-0.908-1.496-1.554-2.828-1.25-4.882c0.432-2.895-0.011-5.951-0.317-8.91c-0.378-3.602-0.058-7.083,1.111-10.5
		c2.147-6.304,3.899-6.695,8.935-2.3c1.173,1.022,0.894,2.004,0.67,3.026c-1.628,7.487-3.329,14.958-4.996,22.435
		C587.667,244.269,587.009,245.717,584.7,244.249z"/>
	<path fill-rule="evenodd" clip-rule="evenodd" fill="#F2F2F2" d="M515.108,151.316c0,0-0.13,0.045-0.126,0.045
		c2.859-0.255,5.38-1.55,8.516-2.634c-2.908,9.548-1.528,19.175-1.479,28.761c0.005,1.217,0.441,2.666-1.717,2.582
		c-1.717-0.067-3.086,0.266-3.527-2.339c-0.786-4.612-2.193-9.127-3.48-13.641c-0.493-1.734-0.994-3.684-3.352-3.927
		c0.146-0.496,0.293-0.995,0.437-1.493c2.893-0.734,3.35-3.521,4.682-5.564C515.664,152.525,515.679,151.929,515.108,151.316z"/>
	<path fill-rule="evenodd" clip-rule="evenodd" fill="#F2F2F2" d="M480.751,186.562c0.149-0.432,0.299-0.864,0.442-1.298
		c1.181,0.893,1.717,0.184,2.118-0.853l0.035-0.033c2.445-1.897,5.212-3.515,6.018-6.851l-0.03,0.037
		c0.275-0.288,0.549-0.576,0.824-0.863c0.471-1.032,1.201-1.697,2.39-1.734c0.021,3.409-0.271,6.854,0.141,10.215
		c0.786,6.395-2.252,10.046-8.081,12.299c-0.378-3.371-1.211-6.556-3.722-8.99C481.635,187.794,482.2,187.107,480.751,186.562z"/>
	<path fill-rule="evenodd" clip-rule="evenodd" fill="#5891BF" d="M509.109,185.386c-1.081,1.121-2.426,1.618-3.956,1.687
		C506.232,185.947,507.607,185.507,509.109,185.386z"/>
	<path fill-rule="evenodd" clip-rule="evenodd" fill="#2EABA5" d="M661.839,276.393c-0.152,0.93-0.562,1.709-1.629,1.379
		c-0.927-0.291-0.828-0.945-0.139-1.521C660.662,276.296,661.247,276.346,661.839,276.393z"/>
	<path fill-rule="evenodd" clip-rule="evenodd" fill="#37B1B8" d="M578.396,239.367c-0.88-0.514-1.473-1.23-1.603-2.273
		C577.913,237.439,578.28,238.313,578.396,239.367z"/>
	<path fill-rule="evenodd" clip-rule="evenodd" fill="#31ADAA" d="M632.552,271.119c-0.841-0.033-1.731,0.122-2.401-0.591
		C630.993,270.546,631.911,270.269,632.552,271.119z"/>
	<path fill-rule="evenodd" clip-rule="evenodd" fill="#31ADAA" d="M635.994,271.975c-0.799-0.176-1.592-0.35-2.391-0.526
		C634.442,271.437,635.35,271.112,635.994,271.975z"/>
	<path fill-rule="evenodd" clip-rule="evenodd" fill="#31ADAA" d="M639.453,272.823c-0.846-0.02-1.737,0.151-2.429-0.548
		C637.877,272.263,638.788,272.004,639.453,272.823z"/>
	<path fill-rule="evenodd" clip-rule="evenodd" fill="#509CC0" d="M533.8,185.329c-0.865-0.075-1.793,0.054-2.408-0.787
		C532.255,184.622,533.162,184.56,533.8,185.329z"/>
	<path fill-rule="evenodd" clip-rule="evenodd" fill="#2EABA5" d="M665.177,276.623c-0.595,0.573-1.121,0.494-1.588-0.163
		C664.12,276.517,664.646,276.569,665.177,276.623z"/>
	<path fill-rule="evenodd" clip-rule="evenodd" fill="#48A4BF" d="M612.776,264.255c-0.533-0.233-1.067-0.464-1.603-0.695
		C611.769,263.65,612.468,263.496,612.776,264.255z"/>
	<path fill-rule="evenodd" clip-rule="evenodd" fill="#48A4BF" d="M605.84,260.874c-0.516-0.233-1.026-0.469-1.537-0.705
		C604.873,260.283,605.606,260.033,605.84,260.874z"/>
	<path fill-rule="evenodd" clip-rule="evenodd" fill="#48A4BF" d="M611.027,263.431c-0.523-0.22-1.05-0.438-1.575-0.662
		C610.035,262.856,610.751,262.618,611.027,263.431z"/>
	<path fill-rule="evenodd" clip-rule="evenodd" fill="#48A4BF" d="M609.263,262.59c-0.511-0.223-1.021-0.446-1.53-0.672
		C608.301,262.01,609.03,261.739,609.263,262.59z"/>
	<path fill-rule="evenodd" clip-rule="evenodd" fill="#48A4BF" d="M607.544,261.739c-0.509-0.232-1.018-0.463-1.528-0.691
		C606.579,261.154,607.318,260.886,607.544,261.739z"/>
	<path fill-rule="evenodd" clip-rule="evenodd" fill="#31ADAA" d="M629.139,270.253c-0.506-0.148-1.013-0.3-1.519-0.451
		C628.208,269.683,628.771,269.646,629.139,270.253z"/>
	<path fill-rule="evenodd" clip-rule="evenodd" fill="#2EADB0" d="M599.698,257.448c-0.461-0.238-0.918-0.472-1.379-0.709
		C598.835,256.865,599.534,256.634,599.698,257.448z"/>
	<path fill-rule="evenodd" clip-rule="evenodd" fill="#9C48A0" d="M363.255,146.911c-0.23,0.213-0.465,0.426-0.697,0.64
		C362.79,147.337,363.024,147.125,363.255,146.911z"/>
	<path fill-rule="evenodd" clip-rule="evenodd" fill="#37B1B8" d="M576.492,236.78c-0.231-0.167-0.4-0.38-0.515-0.638
		C576.151,236.355,576.32,236.566,576.492,236.78z"/>
	<path fill-rule="evenodd" clip-rule="evenodd" fill="#2EADB0" d="M598.081,256.541c-0.219-0.084-0.413-0.211-0.571-0.385
		C597.698,256.285,597.89,256.412,598.081,256.541z"/>
	<path fill-rule="evenodd" clip-rule="evenodd" fill="#0F0F0E" d="M387.615,126.183c-0.368,0.322-0.739,0.643-1.106,0.965
		C386.631,126.545,387.014,126.238,387.615,126.183z"/>
	<path fill-rule="evenodd" clip-rule="evenodd" fill="#A2419D" d="M308.218,191.727c-0.133,0.176-0.292,0.327-0.478,0.446
		C307.694,191.803,307.735,191.53,308.218,191.727z"/>
	<path fill-rule="evenodd" clip-rule="evenodd" fill="#48A4BF" d="M604.116,259.993c-0.231-0.022-0.419-0.126-0.563-0.3
		C603.999,259.316,604.059,259.646,604.116,259.993z"/>
	<path fill-rule="evenodd" clip-rule="evenodd" fill="#2EADB0" d="M600.729,258.247c-0.277-0.089-0.506-0.25-0.685-0.481
		C600.273,257.927,600.501,258.088,600.729,258.247z"/>
	<path fill-rule="evenodd" clip-rule="evenodd" fill="#6287BE" d="M490.158,176.701c-0.275,0.288-0.549,0.575-0.824,0.863
		C489.609,177.276,489.883,176.989,490.158,176.701z"/>
</g>
</svg>
